<?xml version="1.0" encoding="UTF-8" standalone="no"?>
<!-- Created with Inkscape (http://www.inkscape.org/) -->
<svg
   xmlns:dc="http://purl.org/dc/elements/1.1/"
   xmlns:cc="http://creativecommons.org/ns#"
   xmlns:rdf="http://www.w3.org/1999/02/22-rdf-syntax-ns#"
   xmlns:svg="http://www.w3.org/2000/svg"
   xmlns="http://www.w3.org/2000/svg"
   xmlns:xlink="http://www.w3.org/1999/xlink"
   xmlns:sodipodi="http://sodipodi.sourceforge.net/DTD/sodipodi-0.dtd"
   xmlns:inkscape="http://www.inkscape.org/namespaces/inkscape"
   version="1.0"
   width="200"
   height="200"
   id="svg1936"
   sodipodi:version="0.32"
   inkscape:version="0.46"
   sodipodi:docname="amazon_favicon.svg"
   inkscape:output_extension="org.inkscape.output.svg.inkscape"
   sodipodi:docbase="C:\Dokumente und Einstellungen\sebastian\Desktop\django_intranet\reviews\images"
   inkscape:export-filename="/home/basti/Desktop/python-amazon-logo.png"
   inkscape:export-xdpi="72"
   inkscape:export-ydpi="72">
  <metadata
     id="metadata20">
    <rdf:RDF>
      <cc:Work
         rdf:about="">
        <dc:format>image/svg+xml</dc:format>
        <dc:type
           rdf:resource="http://purl.org/dc/dcmitype/StillImage" />
        <dc:title>python-amazon Logo</dc:title>
        <dc:creator>
          <cc:Agent>
            <dc:title>Sebastian Rahlf &lt;basti AT redtoad DOT de&gt;</dc:title>
          </cc:Agent>
        </dc:creator>
        <cc:license
           rdf:resource="http://creativecommons.org/licenses/by-nc-sa/3.0/" />
      </cc:Work>
      <cc:License
         rdf:about="http://creativecommons.org/licenses/by-nc-sa/3.0/">
        <cc:permits
           rdf:resource="http://creativecommons.org/ns#Reproduction" />
        <cc:permits
           rdf:resource="http://creativecommons.org/ns#Distribution" />
        <cc:requires
           rdf:resource="http://creativecommons.org/ns#Notice" />
        <cc:requires
           rdf:resource="http://creativecommons.org/ns#Attribution" />
        <cc:prohibits
           rdf:resource="http://creativecommons.org/ns#CommercialUse" />
        <cc:permits
           rdf:resource="http://creativecommons.org/ns#DerivativeWorks" />
        <cc:requires
           rdf:resource="http://creativecommons.org/ns#ShareAlike" />
      </cc:License>
    </rdf:RDF>
  </metadata>
  <sodipodi:namedview
     inkscape:window-height="951"
     inkscape:window-width="1280"
     inkscape:pageshadow="2"
     inkscape:pageopacity="0.0"
     guidetolerance="10.0"
     gridtolerance="10.0"
     objecttolerance="10.0"
     borderopacity="1.0"
     bordercolor="#666666"
     pagecolor="#ffffff"
     id="base"
     inkscape:zoom="3.615"
     inkscape:cx="80.359613"
     inkscape:cy="100"
     inkscape:window-x="0"
     inkscape:window-y="25"
     inkscape:current-layer="svg1936"
     showguides="true"
     inkscape:guide-bbox="true"
     showgrid="false" />
  <defs
     id="defs1938">
    <inkscape:perspective
       sodipodi:type="inkscape:persp3d"
       inkscape:vp_x="0 : 96.034462 : 1"
       inkscape:vp_y="0 : 1000 : 0"
       inkscape:vp_z="1166.3524 : 96.034462 : 1"
       inkscape:persp3d-origin="583.17621 : 64.022975 : 1"
       id="perspective19" />
    <inkscape:perspective
       id="perspective2396"
       inkscape:persp3d-origin="372.04724 : 350.78739 : 1"
       inkscape:vp_z="744.09448 : 526.18109 : 1"
       inkscape:vp_y="0 : 1000 : 0"
       inkscape:vp_x="0 : 526.18109 : 1"
       sodipodi:type="inkscape:persp3d" />
    <inkscape:perspective
       id="perspective2496"
       inkscape:persp3d-origin="583.17621 : 64.022975 : 1"
       inkscape:vp_z="1166.3524 : 96.034462 : 1"
       inkscape:vp_y="0 : 1000 : 0"
       inkscape:vp_x="0 : 96.034462 : 1"
       sodipodi:type="inkscape:persp3d" />
    <filter
       inkscape:collect="always"
       id="filter3494">
      <feGaussianBlur
         inkscape:collect="always"
         stdDeviation="2.9334375"
         id="feGaussianBlur3496" />
    </filter>
  </defs>
  <path
     sodipodi:type="inkscape:offset"
     inkscape:radius="5.6382279"
     inkscape:original="M 35.625 4 C 18.103615 4 4 18.103615 4 35.625 L 4 156.6875 C 4 174.20888 18.103615 188.3125 35.625 188.3125 L 156.6875 188.3125 C 174.20888 188.3125 188.3125 174.20888 188.3125 156.6875 L 188.3125 35.625 C 188.3125 18.103615 174.20888 4 156.6875 4 L 35.625 4 z "
     xlink:href="#rect2470"
     style="opacity:0.28387098;fill:#000000;fill-opacity:1;stroke:none;stroke-width:8;stroke-linecap:square;stroke-miterlimit:6;stroke-dasharray:none;filter:url(#filter3494)"
     id="path3324"
     inkscape:href="#rect2470"
     d="M 35.625,-1.625 C 15.078002,-1.625 -1.625,15.078002 -1.625,35.625 L -1.625,156.6875 C -1.625,177.23449 15.078001,193.9375 35.625,193.9375 L 156.6875,193.9375 C 177.23449,193.9375 193.9375,177.23449 193.9375,156.6875 L 193.9375,35.625 C 193.9375,15.078001 177.23449,-1.625 156.6875,-1.625 L 35.625,-1.625 z"
     transform="translate(4,4)" />
  <rect
     style="fill:#ffffff;fill-opacity:1;stroke:#000000;stroke-width:8;stroke-linecap:square;stroke-miterlimit:6;stroke-dasharray:none"
     id="rect2470"
     width="184.32436"
     height="184.32436"
     x="4"
     y="4"
     rx="31.627048"
     ry="31.627048" />
  <path
     id="path2403"
     style="fill:none;fill-rule:evenodd;stroke:#aa0000;stroke-width:1px;stroke-linecap:butt;stroke-linejoin:miter;stroke-opacity:1"
     d="M 165.7257,135.45981 C 171.96282,133.77645 173.21324,132.30656 173.21324,132.30656 L 173.67609,128.68149 M 173.15688,132.19309 L 175.93055,133.22031" />
  <path
     style="opacity:1;fill:#72ba45;fill-opacity:1;fill-rule:evenodd;stroke:#000000"
     d="M 145.85691,136.30433 C 141.16653,140.75144 140.6833,145.60476 136.9375,150.03125 C 122.6877,153.73539 100.84691,153.1346 85.138709,153.57476 C 62.850455,153.57476 50.127538,149.7203 29.09375,132.46875 C 26.36402,130.86732 24.318987,133.66236 26.59375,135.71875 C 44.696319,154.02121 64.889177,164.0361 90.280803,166.17041 C 106.76193,166.1704 121.14932,165.56883 133.48904,160.06688 C 145.82875,154.56492 153.32723,156.72025 157.11653,154.41807 C 160.82406,152.16557 161.45416,148.94045 163.09551,146.17884 C 165.61453,141.94051 168.96947,137.44575 167.283,134.58777 C 165.59652,131.72978 159.91991,132.90755 154.40443,134.15509 C 151.02453,134.91958 147.26476,135.05112 145.85691,136.30433 z"
     id="path8"
     sodipodi:nodetypes="cccccczzszsc" />
  <path
     sodipodi:type="arc"
     style="opacity:0.33999999;fill:#4d4d4d;fill-opacity:1;stroke:none;stroke-width:12.625;stroke-linecap:square;stroke-miterlimit:6;stroke-dasharray:none"
     id="path2412"
     sodipodi:cx="94.9636"
     sodipodi:cy="165.05592"
     sodipodi:rx="6.0920043"
     sodipodi:ry="6.0920043"
     d="M 101.0556,165.05592 A 6.0920043,6.0920043 0 1 1 88.871596,165.05592 A 6.0920043,6.0920043 0 1 1 101.0556,165.05592 z"
     transform="matrix(0.6880411,0,0,0.6880411,23.131237,46.517524)" />
  <path
     d="M 96.523714,88.731523 C 96.523714,96.522621 96.720582,103.0199 92.782858,109.93908 C 89.60452,115.56444 84.569839,119.02403 78.944492,119.02403 C 71.265893,119.02403 66.793751,113.17365 66.793751,104.53874 C 66.793751,87.493948 82.06656,84.400011 96.523714,84.400011 L 96.523714,88.731523 M 116.69057,137.47515 C 115.36862,138.65647 113.45598,138.74085 111.96527,137.95332 C 105.32738,132.44047 104.14604,129.88094 100.48957,124.62124 C 89.520139,135.81568 81.757182,139.16275 67.525038,139.16275 C 50.705244,139.16275 37.598208,128.78399 37.598208,107.99835 C 37.598208,91.769211 46.401873,80.715405 58.918262,75.315077 C 69.775179,70.533515 84.935488,69.689729 96.523714,68.367775 L 96.523714,65.780115 C 96.523714,61.026683 96.889362,55.401335 94.104813,51.294853 C 91.65777,47.610237 86.988751,46.091393 82.882236,46.091393 C 75.259908,46.091393 68.453224,50.001007 66.793751,58.101505 C 66.456222,59.901628 65.134267,61.673611 63.334165,61.757991 L 43.926723,59.676598 C 42.295369,59.310971 40.495256,57.988995 40.945284,55.485736 C 45.417437,31.97179 66.653111,24.883838 85.666796,24.883838 C 95.398627,24.883838 108.11191,27.471498 115.79051,34.840698 C 125.52237,43.925631 124.59417,56.048253 124.59417,69.239701 L 124.59417,100.40412 C 124.59417,109.77033 128.47568,113.87681 132.13215,118.93965 C 133.42597,120.73974 133.70725,122.9055 132.0759,124.25559 C 127.99751,127.65893 120.74083,133.98745 116.74681,137.53141 L 116.69057,137.47515"
     style="fill:#000000;fill-rule:evenodd;stroke:none"
     id="path30" />
  <path
     sodipodi:nodetypes="ccccczccsc"
     id="path2408"
     d="M 145.85691,136.30433 C 141.16653,140.75144 140.6833,145.60476 136.9375,150.03125 C 122.6877,153.73539 100.84691,153.1346 85.138709,153.57476 C 62.850455,153.57476 50.127538,149.7203 29.09375,132.46875 C 51.831114,151.10304 48.857425,149.02051 73.438203,156.13652 C 96.54257,158.76822 116.84908,157.68506 132.05563,155.40829 C 147.31868,153.12306 145.44346,142.38612 149.23276,140.08394 C 156.34249,136.51172 159.7485,136.25257 167.283,134.58777 C 167.65044,131.48956 159.91991,132.90755 154.40443,134.15509 C 151.02453,134.91958 147.26476,135.05112 145.85691,136.30433 z"
     style="opacity:0.52999998;fill:#ffff00;fill-opacity:1;fill-rule:evenodd;stroke:none" />
  <path
     sodipodi:nodetypes="ccccczzscc"
     id="path2410"
     d="M 156.78668,151.53434 C 152.0963,155.98145 143.0126,151.51759 139.2668,155.94408 C 125.017,159.64822 105.86385,162.98931 90.155654,163.42947 C 55.397908,159.68727 42.113921,146.56572 26.59375,135.71875 C 44.696319,154.02121 64.889177,164.0361 90.280803,166.17041 C 106.76193,166.1704 121.14932,165.56883 133.48904,160.06688 C 145.82875,154.56492 153.32723,156.72025 157.11653,154.41807 C 160.82406,152.16557 161.45416,148.94045 163.09551,146.17884 C 165.61453,141.94051 168.96947,137.44575 167.283,134.58777 C 161.74135,143.26673 161.23878,141.55626 156.78668,151.53434 z"
     style="opacity:0.31999996;fill:#333333;fill-opacity:1;fill-rule:evenodd;stroke:none" />
  <use
     x="0"
     y="0"
     xlink:href="#path2412"
     id="use2414"
     transform="translate(14.352585,-0.1993415)"
     width="196.94936"
     height="196.94936" />
  <use
     height="196.94936"
     width="196.94936"
     transform="translate(30.897926,-1.4950609)"
     id="use2416"
     xlink:href="#path2412"
     y="0"
     x="0" />
  <use
     x="0"
     y="0"
     xlink:href="#path2412"
     id="use2418"
     transform="translate(44.253803,-4.186171)"
     width="196.94936"
     height="196.94936" />
  <use
     height="196.94936"
     width="196.94936"
     transform="matrix(0.8654858,0,0,0.8654858,-2.3182303,19.790632)"
     id="use2420"
     xlink:href="#path2412"
     y="0"
     x="0" />
  <use
     x="0"
     y="0"
     xlink:href="#path2412"
     id="use2422"
     transform="matrix(0.7740998,0,0,0.7740998,-8.86926,30.930023)"
     width="196.94936"
     height="196.94936" />
  <use
     height="196.94936"
     width="196.94936"
     transform="matrix(0.6908734,0,0,0.6908734,-16.107975,37.32602)"
     id="use2424"
     xlink:href="#path2412"
     y="0"
     x="0" />
  <path
     transform="matrix(0.2831293,0,0,0.2831293,124.51984,92.4187)"
     d="M 101.0556,165.05592 A 6.0920043,6.0920043 0 1 1 88.871596,165.05592 A 6.0920043,6.0920043 0 1 1 101.0556,165.05592 z"
     sodipodi:ry="6.0920043"
     sodipodi:rx="6.0920043"
     sodipodi:cy="165.05592"
     sodipodi:cx="94.9636"
     id="path2428"
     style="opacity:0.7;fill:#4d4d4d;fill-opacity:1;stroke:none;stroke-width:12.625;stroke-linecap:square;stroke-miterlimit:6;stroke-dasharray:none"
     sodipodi:type="arc" />
  <use
     x="0"
     y="0"
     xlink:href="#path2428"
     id="use2430"
     transform="translate(6.632001,7.810949)"
     width="196.94936"
     height="196.94936" />
  <path
     d="M 134.02505,26.862037 C 138.13139,26.862037 141.54134,30.175943 141.54134,34.354328 C 141.54134,38.436647 138.17943,41.870618 134.02505,41.870618 C 129.8947,41.870618 126.53278,38.508687 126.53278,34.354328 C 126.53278,30.127901 129.94272,26.862037 134.02505,26.862037 M 134.04906,25.421215 C 129.24632,25.421215 125.09195,29.311437 125.09195,34.378326 C 125.09195,39.349167 129.17428,43.31144 134.04906,43.31144 C 138.94786,43.31144 142.98216,39.301153 142.98216,34.378326 C 142.98216,29.311437 138.87582,25.421215 134.04906,25.421215 M 130.68714,39.397192 L 132.60824,39.397192 L 132.60824,35.362888 L 134.38526,35.362888 C 135.08165,35.362888 135.27377,35.651069 135.41785,36.227385 C 135.41785,36.371466 135.75404,38.916933 135.77805,39.397192 L 137.91527,39.397192 C 137.65112,38.916933 137.50703,37.548151 137.41099,36.731669 C 137.21887,35.458945 137.12281,34.570441 135.75404,34.474383 C 136.45043,34.234245 137.65112,33.850025 137.65112,32.000985 C 137.65112,29.359461 135.32179,29.359461 134.12111,29.359461 L 130.68714,29.359461 L 130.68714,39.397192 M 132.56022,30.968381 L 134.16913,30.968381 C 134.69743,30.968381 135.65798,30.968381 135.65798,32.337162 C 135.65798,32.865463 135.41785,33.753986 134.12111,33.753986 L 132.56022,33.753986 L 132.56022,30.968381"
     style="fill:#000000;fill-rule:evenodd;stroke:none"
     id="path32" />
</svg>
