<?xml version="1.0" encoding="UTF-8" standalone="no"?>
<!-- Created with Inkscape (http://www.inkscape.org/) -->
<svg
   xmlns:dc="http://purl.org/dc/elements/1.1/"
   xmlns:cc="http://creativecommons.org/ns#"
   xmlns:rdf="http://www.w3.org/1999/02/22-rdf-syntax-ns#"
   xmlns:svg="http://www.w3.org/2000/svg"
   xmlns="http://www.w3.org/2000/svg"
   xmlns:sodipodi="http://sodipodi.sourceforge.net/DTD/sodipodi-0.dtd"
   xmlns:inkscape="http://www.inkscape.org/namespaces/inkscape"
   version="1.0"
   width="196.94936"
   height="196.94936"
   id="svg1936"
   sodipodi:version="0.32"
   inkscape:version="0.46"
   sodipodi:docname="amazon_favicon.svg"
   inkscape:output_extension="org.inkscape.output.svg.inkscape"
   sodipodi:docbase="C:\Dokumente und Einstellungen\sebastian\Desktop\django_intranet\reviews\images"
   inkscape:export-filename="/home/basti/Desktop/amazon_favicon.png"
   inkscape:export-xdpi="16.719999"
   inkscape:export-ydpi="16.719999">
  <metadata
     id="metadata20">
    <rdf:RDF>
      <cc:Work
         rdf:about="">
        <dc:format>image/svg+xml</dc:format>
        <dc:type
           rdf:resource="http://purl.org/dc/dcmitype/StillImage" />
      </cc:Work>
    </rdf:RDF>
  </metadata>
  <sodipodi:namedview
     inkscape:window-height="951"
     inkscape:window-width="1280"
     inkscape:pageshadow="2"
     inkscape:pageopacity="0.0"
     guidetolerance="10.0"
     gridtolerance="10.0"
     objecttolerance="10.0"
     borderopacity="1.0"
     bordercolor="#666666"
     pagecolor="#ffffff"
     id="base"
     inkscape:zoom="1.3952715"
     inkscape:cx="78.760771"
     inkscape:cy="84.542782"
     inkscape:window-x="0"
     inkscape:window-y="25"
     inkscape:current-layer="svg1936"
     showguides="true"
     inkscape:guide-bbox="true"
     showgrid="false" />
  <defs
     id="defs1938">
    <inkscape:perspective
       sodipodi:type="inkscape:persp3d"
       inkscape:vp_x="0 : 96.034462 : 1"
       inkscape:vp_y="0 : 1000 : 0"
       inkscape:vp_z="1166.3524 : 96.034462 : 1"
       inkscape:persp3d-origin="583.17621 : 64.022975 : 1"
       id="perspective19" />
  </defs>
  <rect
     style="fill:#ffffff;fill-opacity:1;stroke:#000000;stroke-width:12.625;stroke-linecap:square;stroke-miterlimit:6;stroke-dasharray:none"
     id="rect2470"
     width="184.32436"
     height="184.32436"
     x="6.3125"
     y="6.3125"
     rx="31.627048"
     ry="31.627048" />
  <g
     id="g2466"
     transform="matrix(0.6941391,0,0,0.6941391,-104.15009,43.23665)">
    <path
       id="path8"
       style="fill:#ff9900;fill-opacity:1;fill-rule:evenodd;stroke:none"
       d="M 373.64245,155.99769 C 338.64297,181.79508 322.72031,191.54647 295.06051,191.54647 C 252.52171,191.54647 222.6889,176.92002 191.67776,136.57144 C 188.40066,133.60892 191.33693,129.57154 195.26947,131.87861 C 225.57145,156.73177 266.62167,168.47565 298.73088,168.47565 C 324.13073,168.47565 350.73573,159.11579 368.55638,147.81804 C 374.48139,145.30121 379.43637,151.69813 373.64245,155.99769"
       sodipodi:nodetypes="csccscc" />
    <path
       id="path10"
       style="fill:#ff9900;fill-opacity:1;fill-rule:evenodd;stroke:none"
       d="M 388.19281,139.35 C 383.73593,133.63473 358.6202,136.64967 347.34696,137.98673 C 343.91254,138.4062 343.38822,135.41748 346.48179,133.26768 C 366.48525,119.18924 399.30875,123.25285 403.13641,127.97188 C 406.96405,132.71714 402.14017,165.61929 383.34268,181.32316 C 380.45883,183.73511 377.70606,182.4505 378.9907,179.25203 C 383.2116,168.71286 392.67589,145.09149 388.19281,139.35" />
  </g>
  <g
     id="g2472"
     transform="matrix(0.915965,0,0,0.915965,41.767508,39.384949)">
    <path
       id="path30"
       style="fill:#000000;fill-rule:evenodd;stroke:none"
       d="M 62.304461,56.398524 C 62.304461,64.904415 62.519391,71.99778 58.220401,79.551762 C 54.750467,85.693217 49.253881,89.470207 43.112438,89.470207 C 34.729367,89.470207 29.84693,83.083083 29.84693,73.65597 C 29.84693,55.047408 46.520939,51.669618 62.304461,51.669618 L 62.304461,56.398524 M 84.321524,109.61412 C 82.878287,110.90382 80.790179,110.99594 79.1627,110.13616 C 71.915816,104.11754 70.626098,101.32319 66.63416,95.580937 C 54.658345,107.80241 46.183177,111.45655 30.645308,111.45655 C 12.282386,111.45655 -2.0271516,100.1256 -2.0271516,77.432978 C -2.0271516,59.714904 7.5842034,47.646969 21.248906,41.751189 C 33.101888,36.530944 49.653076,35.609745 62.304461,34.166508 L 62.304461,31.341444 C 62.304461,26.15191 62.703656,20.010466 59.663639,15.527235 C 56.992093,11.504575 51.894715,9.846385 47.411449,9.846385 C 39.089812,9.846385 31.658651,14.114686 29.84693,22.958362 C 29.478434,24.923637 28.035197,26.85819 26.069945,26.950311 L 4.8819714,24.677962 C 3.1009494,24.27879 1.1356854,22.83553 1.6270014,20.10261 C 6.5094504,-5.5686175 29.693387,-13.306852 50.451478,-13.306852 C 61.076154,-13.306852 74.955809,-10.481788 83.33888,-2.436503 C 93.963589,7.481926 92.950239,20.716735 92.950239,35.118429 L 92.950239,69.142017 C 92.950239,79.367531 97.187849,83.850762 101.17979,89.378086 C 102.59231,91.343327 102.89939,93.707787 101.11837,95.181737 C 96.665819,98.897317 88.743369,105.80645 84.382922,109.67555 L 84.321524,109.61412" />
    <path
       id="path32"
       style="fill:#000000;fill-rule:evenodd;stroke:none"
       d="M 105.8853,-9.1436644 C 110.36838,-9.1436644 114.09117,-5.5257244 114.09117,-0.96399446 C 114.09117,3.4928555 110.42082,7.2418755 105.8853,7.2418755 C 101.37601,7.2418755 97.705651,3.5715055 97.705651,-0.96399446 C 97.705651,-5.5781744 101.42844,-9.1436644 105.8853,-9.1436644 M 105.91152,-10.716674 C 100.66815,-10.716674 96.132641,-6.4695444 96.132641,-0.93779446 C 96.132641,4.4890955 100.5895,8.8148855 105.91152,8.8148855 C 111.25975,8.8148855 115.66418,4.4366755 115.66418,-0.93779446 C 115.66418,-6.4695444 111.18111,-10.716674 105.91152,-10.716674 M 102.24116,4.5415255 L 104.33851,4.5415255 L 104.33851,0.13709554 L 106.27856,0.13709554 C 107.03884,0.13709554 107.24858,0.45171554 107.40588,1.0809055 C 107.40588,1.2382055 107.77292,4.0172055 107.79913,4.5415255 L 110.13243,4.5415255 C 109.84405,4.0172055 109.68674,2.5228455 109.58188,1.6314555 C 109.37214,0.24196554 109.26727,-0.72805446 107.77292,-0.83292446 C 108.5332,-1.0950945 109.84405,-1.5145645 109.84405,-3.5332445 C 109.84405,-6.4171144 107.30101,-6.4171144 105.99017,-6.4171144 L 102.24116,-6.4171144 L 102.24116,4.5415255 M 104.28608,-4.6605844 L 106.0426,-4.6605844 C 106.61937,-4.6605844 107.66805,-4.6605844 107.66805,-3.1662245 C 107.66805,-2.5894545 107.40588,-1.6194145 105.99017,-1.6194145 L 104.28608,-1.6194145 L 104.28608,-4.6605844" />
  </g>
</svg>
