<?xml version="1.0" encoding="UTF-8" standalone="no"?>
<!-- Created with Inkscape (http://www.inkscape.org/) -->
<svg
   xmlns:dc="http://purl.org/dc/elements/1.1/"
   xmlns:cc="http://creativecommons.org/ns#"
   xmlns:rdf="http://www.w3.org/1999/02/22-rdf-syntax-ns#"
   xmlns:svg="http://www.w3.org/2000/svg"
   xmlns="http://www.w3.org/2000/svg"
   xmlns:xlink="http://www.w3.org/1999/xlink"
   xmlns:sodipodi="http://sodipodi.sourceforge.net/DTD/sodipodi-0.dtd"
   xmlns:inkscape="http://www.inkscape.org/namespaces/inkscape"
   width="1384.7319"
   height="221.74184"
   id="svg2"
   sodipodi:version="0.32"
   inkscape:version="0.46"
   sodipodi:docname="amazon-product-advertising-api.svg"
   inkscape:output_extension="org.inkscape.output.svg.inkscape"
   version="1.0">
  <sodipodi:namedview
     id="base"
     pagecolor="#ffffff"
     bordercolor="#666666"
     borderopacity="1.0"
     inkscape:pageopacity="0.0"
     inkscape:pageshadow="2"
     inkscape:zoom="0.60868914"
     inkscape:cx="636.54829"
     inkscape:cy="84.409514"
     inkscape:document-units="px"
     inkscape:current-layer="layer1"
     showgrid="false"
     inkscape:window-width="1280"
     inkscape:window-height="951"
     inkscape:window-x="0"
     inkscape:window-y="25" />
  <defs
     id="defs4">
    <inkscape:perspective
       id="perspective10"
       inkscape:persp3d-origin="372.04724 : 350.78739 : 1"
       inkscape:vp_z="744.09448 : 526.18109 : 1"
       inkscape:vp_y="0 : 1000 : 0"
       inkscape:vp_x="0 : 526.18109 : 1"
       sodipodi:type="inkscape:persp3d" />
    <inkscape:perspective
       sodipodi:type="inkscape:persp3d"
       inkscape:vp_x="0 : 526.18109 : 1"
       inkscape:vp_y="0 : 1000 : 0"
       inkscape:vp_z="744.09448 : 526.18109 : 1"
       inkscape:persp3d-origin="372.04724 : 350.78739 : 1"
       id="perspective2390" />
    <inkscape:perspective
       id="perspective2496"
       inkscape:persp3d-origin="583.17621 : 64.022975 : 1"
       inkscape:vp_z="1166.3524 : 96.034462 : 1"
       inkscape:vp_y="0 : 1000 : 0"
       inkscape:vp_x="0 : 96.034462 : 1"
       sodipodi:type="inkscape:persp3d" />
    <inkscape:perspective
       id="perspective2396"
       inkscape:persp3d-origin="372.04724 : 350.78739 : 1"
       inkscape:vp_z="744.09448 : 526.18109 : 1"
       inkscape:vp_y="0 : 1000 : 0"
       inkscape:vp_x="0 : 526.18109 : 1"
       sodipodi:type="inkscape:persp3d" />
    <inkscape:perspective
       sodipodi:type="inkscape:persp3d"
       inkscape:vp_x="0 : 96.034462 : 1"
       inkscape:vp_y="0 : 1000 : 0"
       inkscape:vp_z="1166.3524 : 96.034462 : 1"
       inkscape:persp3d-origin="583.17621 : 64.022975 : 1"
       id="perspective19" />
    <inkscape:perspective
       sodipodi:type="inkscape:persp3d"
       inkscape:vp_x="0 : 526.18109 : 1"
       inkscape:vp_y="0 : 1000 : 0"
       inkscape:vp_z="744.09448 : 526.18109 : 1"
       inkscape:persp3d-origin="372.04724 : 350.78739 : 1"
       id="perspective2551" />
    <inkscape:perspective
       sodipodi:type="inkscape:persp3d"
       inkscape:vp_x="0 : 97.830704 : 1"
       inkscape:vp_y="0 : 1000 : 0"
       inkscape:vp_z="971.68109 : 97.830704 : 1"
       inkscape:persp3d-origin="485.84055 : 65.220469 : 1"
       id="perspective2731" />
  </defs>
  <metadata
     id="metadata7">
    <rdf:RDF>
      <cc:Work
         rdf:about="">
        <dc:format>image/svg+xml</dc:format>
        <dc:type
           rdf:resource="http://purl.org/dc/dcmitype/StillImage" />
      </cc:Work>
    </rdf:RDF>
  </metadata>
  <g
     id="layer1"
     inkscape:groupmode="layer"
     inkscape:label="Ebene 1"
     transform="translate(159.99884,-165.17018)">
    <g
       transform="matrix(2.225002,0,0,2.225002,-1077.6241,-1234.0558)"
       id="g2529">
      <path
         sodipodi:nodetypes="ccccc"
         id="path2403"
         style="fill:none;fill-rule:evenodd;stroke:#aa0000;stroke-width:1px;stroke-linecap:butt;stroke-linejoin:miter;stroke-opacity:1"
         d="M 591.03609,678.13421 C 594.66079,675.57947 597.31807,676.94148 597.31807,676.94148 L 599.65158,674.129 M 597.33129,676.81548 L 599.12251,679.16919" />
      <path
         style="fill:#72ba45;fill-opacity:1;fill-rule:evenodd;stroke:#000000"
         d="M 570.4596,679.69776 C 565.76922,684.14487 565.28599,688.99819 561.54019,693.42468 C 547.29039,697.12882 525.4496,696.52803 509.7414,696.96819 C 487.45315,696.96819 474.73023,693.11373 453.69644,675.86218 C 450.96671,674.26075 448.92168,677.05579 451.19644,679.11218 C 469.29901,697.41464 489.49187,707.42953 514.88349,709.56384 C 531.36462,709.56383 545.75201,708.96226 558.09173,703.46031 C 570.43144,697.95835 577.92992,700.11368 581.71922,697.8115 C 585.42675,695.559 586.05685,692.33388 587.6982,689.57227 C 590.21722,685.33394 593.57216,680.83918 591.88569,677.9812 C 590.19921,675.12321 584.5226,676.30098 579.00712,677.54852 C 575.62722,678.31301 571.86745,678.44455 570.4596,679.69776 z"
         id="path8"
         sodipodi:nodetypes="cccccczzszsc" />
      <path
         sodipodi:type="arc"
         style="opacity:0.33999999;fill:#4d4d4d;fill-opacity:1;stroke:none;stroke-width:12.625;stroke-linecap:square;stroke-miterlimit:6;stroke-dasharray:none"
         id="path2412"
         sodipodi:cx="94.9636"
         sodipodi:cy="165.05592"
         sodipodi:rx="6.0920043"
         sodipodi:ry="6.0920043"
         d="M 101.0556,165.05592 A 6.0920043,6.0920043 0 1 1 88.871596,165.05592 A 6.0920043,6.0920043 0 1 1 101.0556,165.05592 z"
         transform="matrix(0.6880411,0,0,0.6880411,447.73393,589.91095)" />
      <path
         sodipodi:nodetypes="ccccczccsc"
         id="path2408"
         d="M 570.4596,679.69776 C 565.76922,684.14487 565.28599,688.99819 561.54019,693.42468 C 547.29039,697.12882 525.4496,696.52803 509.7414,696.96819 C 487.45315,696.96819 474.73023,693.11373 453.69644,675.86218 C 476.4338,694.49647 473.46012,692.41394 498.04089,699.52995 C 521.14526,702.16165 541.45177,701.07849 556.65832,698.80172 C 571.92137,696.51649 570.04615,685.77955 573.83545,683.47737 C 580.94518,679.90515 584.35119,679.646 591.88569,677.9812 C 592.25313,674.88299 584.5226,676.30098 579.00712,677.54852 C 575.62722,678.31301 571.86745,678.44455 570.4596,679.69776 z"
         style="opacity:0.52999998;fill:#ffff00;fill-opacity:1;fill-rule:evenodd;stroke:none" />
      <path
         sodipodi:nodetypes="ccccczzscc"
         id="path2410"
         d="M 581.38937,694.92777 C 576.69899,699.37488 567.61529,694.91102 563.86949,699.33751 C 549.61969,703.04165 530.46654,706.38274 514.75834,706.8229 C 480.0006,703.0807 466.71661,689.95915 451.19644,679.11218 C 469.29901,697.41464 489.49187,707.42953 514.88349,709.56384 C 531.36462,709.56383 545.75201,708.96226 558.09173,703.46031 C 570.43144,697.95835 577.92992,700.11368 581.71922,697.8115 C 585.42675,695.559 586.05685,692.33388 587.6982,689.57227 C 590.21722,685.33394 593.57216,680.83918 591.88569,677.9812 C 586.34404,686.66016 585.84147,684.94969 581.38937,694.92777 z"
         style="opacity:0.31999996;fill:#333333;fill-opacity:1;fill-rule:evenodd;stroke:none" />
      <use
         x="0"
         y="0"
         xlink:href="#path2412"
         id="use2414"
         transform="translate(14.352584,-0.199343)"
         width="196.94936"
         height="196.94936" />
      <use
         height="196.94936"
         width="196.94936"
         transform="translate(30.897926,-1.495063)"
         id="use2416"
         xlink:href="#path2412"
         y="0"
         x="0" />
      <use
         x="0"
         y="0"
         xlink:href="#path2412"
         id="use2418"
         transform="translate(44.253803,-4.186173)"
         width="196.94936"
         height="196.94936" />
      <use
         height="196.94936"
         width="196.94936"
         transform="matrix(0.8654858,0,0,0.8654858,54.796861,92.884767)"
         id="use2420"
         xlink:href="#path2412"
         y="0"
         x="0" />
      <use
         x="0"
         y="0"
         xlink:href="#path2412"
         id="use2422"
         transform="matrix(0.7740998,0,0,0.7740998,87.048573,153.68271)"
         width="196.94936"
         height="196.94936" />
      <use
         height="196.94936"
         width="196.94936"
         transform="matrix(0.6908734,0,0,0.6908734,115.14801,205.30338)"
         id="use2424"
         xlink:href="#path2412"
         y="0"
         x="0" />
      <path
         transform="matrix(0.2831293,0,0,0.2831293,549.12253,635.81213)"
         d="M 101.0556,165.05592 A 6.0920043,6.0920043 0 1 1 88.871596,165.05592 A 6.0920043,6.0920043 0 1 1 101.0556,165.05592 z"
         sodipodi:ry="6.0920043"
         sodipodi:rx="6.0920043"
         sodipodi:cy="165.05592"
         sodipodi:cx="94.9636"
         id="path2428"
         style="opacity:0.7;fill:#4d4d4d;fill-opacity:1;stroke:none;stroke-width:12.625;stroke-linecap:square;stroke-miterlimit:6;stroke-dasharray:none"
         sodipodi:type="arc" />
      <use
         x="0"
         y="0"
         xlink:href="#path2428"
         id="use2430"
         transform="translate(6.6320044,7.810947)"
         width="196.94936"
         height="196.94936" />
    </g>
    <g
       transform="translate(-15.464497,-484.70701)"
       id="g2734">
      <g
         transform="translate(7.081691,7.081144)"
         id="g1967">
        <path
           d="M 196.51744,662.61598 L 196.51744,648.93079 C 196.51744,646.85966 198.09045,645.47017 199.97806,645.47017 L 261.24681,645.47017 C 263.21309,645.47017 264.7861,646.88588 264.7861,648.93079 L 264.7861,660.64972 C 264.75988,662.61598 263.10822,665.18523 260.17192,669.24884 L 228.42333,714.57777 C 240.22092,714.2894 252.67392,716.04591 263.37039,722.07579 C 265.78234,723.43906 266.43776,725.43154 266.62128,727.39782 L 266.62128,742.0006 C 266.62128,743.99308 264.41906,746.32636 262.11198,745.1204 C 243.26206,735.23664 218.22498,734.16175 197.38259,745.22527 C 195.25903,746.37881 193.0306,744.07173 193.0306,742.07925 L 193.0306,728.21054 C 193.0306,725.98211 193.0568,722.18065 195.28523,718.79868 L 232.06747,666.05039 L 200.05671,666.05039 C 198.09045,666.05039 196.51744,664.66091 196.51744,662.61598"
           style="fill:#221f1f;fill-rule:evenodd;stroke:none"
           id="path12" />
        <path
           d="M -26.981169,748.00424 L -45.621339,748.00424 C -47.404069,747.87317 -48.819789,746.53611 -48.950879,744.832 L -48.950879,649.16676 C -48.950879,647.25293 -47.351649,645.73234 -45.359169,645.73234 L -27.977409,645.73234 C -26.168429,645.81099 -24.726519,647.20048 -24.595419,648.93079 L -24.595419,661.43624 L -24.254599,661.43624 C -19.719089,649.35026 -11.198629,643.71364 0.28436143,643.71364 C 11.950851,643.71364 19.239131,649.35026 24.482501,661.43624 C 28.991801,649.35026 39.242581,643.71364 50.227451,643.71364 C 58.040071,643.71364 66.586761,646.93831 71.803911,654.17416 C 77.702701,662.22273 76.496721,673.91544 76.496721,684.16624 L 76.470511,744.54363 C 76.470511,746.45746 74.871281,748.00424 72.878801,748.00424 L 54.264831,748.00424 C 52.403451,747.87317 50.909091,746.37881 50.909091,744.54363 L 50.909091,693.84025 C 50.909091,689.80286 51.276111,679.73559 50.384751,675.90792 C 48.995261,669.48481 44.826781,667.67583 39.426101,667.67583 C 34.916801,667.67583 30.197771,670.69077 28.283941,675.51468 C 26.370111,680.33858 26.553631,688.41335 26.553631,693.84025 L 26.553631,744.54363 C 26.553631,746.45746 24.954401,748.00424 22.961921,748.00424 L 4.3479714,748.00424 C 2.4603614,747.87317 0.99221143,746.37881 0.99221143,744.54363 L 0.96600143,693.84025 C 0.96600143,683.17 2.7225114,667.4661 -10.516979,667.4661 C -23.913799,667.4661 -23.389459,682.77673 -23.389459,693.84025 L -23.389459,744.54363 C -23.389459,746.45746 -24.988689,748.00424 -26.981169,748.00424"
           style="fill:#221f1f;fill-rule:evenodd;stroke:none"
           id="path14" />
        <path
           d="M 317.53439,643.71364 C 345.19316,643.71364 360.16297,667.4661 360.16297,697.66791 C 360.16297,726.84725 343.62013,749.99672 317.53439,749.99672 C 290.37373,749.99672 275.58742,726.24426 275.58742,696.64545 C 275.58742,666.86311 290.55725,643.71364 317.53439,643.71364 M 317.69168,663.2452 C 303.95407,663.2452 303.0889,681.96401 303.0889,693.63052 C 303.0889,705.32323 302.90538,730.28166 317.53439,730.28166 C 331.97987,730.28166 332.66151,710.14714 332.66151,697.87763 C 332.66151,689.80286 332.32069,680.15506 329.88251,672.49973 C 327.78516,665.84067 323.6167,663.2452 317.69168,663.2452"
           style="fill:#221f1f;fill-rule:evenodd;stroke:none"
           id="path16" />
        <path
           d="M 396.02762,748.00424 L 377.4661,748.00424 C 375.60469,747.87317 374.11033,746.37881 374.11033,744.54363 L 374.08411,648.85214 C 374.24141,647.09561 375.78821,645.73234 377.67582,645.73234 L 394.95273,645.73234 C 396.57816,645.81099 397.91522,646.9121 398.28227,648.40646 L 398.28227,663.03545 L 398.62307,663.03545 C 403.84024,649.95325 411.15472,643.71364 424.02719,643.71364 C 432.39036,643.71364 440.54381,646.72858 445.78718,654.98688 C 450.66351,662.6422 450.66351,675.51468 450.66351,684.76921 L 450.66351,744.98932 C 450.45378,746.66718 448.90698,748.00424 447.07182,748.00424 L 428.3792,748.00424 C 426.67509,747.87317 425.25938,746.61476 425.07588,744.98932 L 425.07588,693.02753 C 425.07588,682.56701 426.28185,667.25636 413.40937,667.25636 C 408.87387,667.25636 404.70538,670.29753 402.63425,674.91168 C 400.01258,680.75805 399.67176,686.57819 399.67176,693.02753 L 399.67176,744.54363 C 399.64553,746.45746 398.0201,748.00424 396.02762,748.00424"
           style="fill:#221f1f;fill-rule:evenodd;stroke:none"
           id="path18" />
        <path
           d="M 147.67545,702.30829 C 147.67545,709.57035 147.85897,715.62644 144.18861,722.07579 C 141.22611,727.31917 136.50708,730.54384 131.28993,730.54384 C 124.13273,730.54384 119.93804,725.09072 119.93804,717.04215 C 119.93804,701.15475 134.17378,698.2709 147.67545,698.2709 L 147.67545,702.30829 M 166.47293,747.74207 C 165.24075,748.84318 163.45799,748.92183 162.0685,748.18777 C 155.88132,743.04927 154.754,740.66354 151.37203,735.76099 C 141.14746,746.19529 133.88538,749.31508 120.64588,749.31508 C 104.94199,749.31508 92.751161,739.64107 92.751161,720.26684 C 92.751161,705.13971 100.93083,694.83649 112.62354,689.80286 C 122.74324,685.34598 136.8741,684.55949 147.67545,683.3273 L 147.67545,680.91535 C 147.67545,676.48469 148.01627,671.24132 145.39459,667.41368 C 143.13994,663.97926 138.78793,662.56355 134.93407,662.56355 C 127.82929,662.56355 121.51105,666.20769 119.96424,673.75814 C 119.64964,675.43603 118.41746,677.08769 116.71335,677.16634 L 98.649951,675.22628 C 97.129371,674.88548 95.425281,673.65327 95.870971,671.31999 C 100.01323,649.40271 119.83317,642.79605 137.55574,642.79605 C 146.62678,642.79605 158.47679,645.208 165.63399,652.07681 C 174.70501,660.54485 173.83986,671.84431 173.83986,684.14002 L 173.83986,713.18828 C 173.83986,721.9185 177.45778,725.74614 180.86597,730.46519 C 182.04574,732.14305 182.30791,734.16175 180.78732,735.42016 C 176.98588,738.59241 170.22193,744.4912 166.49914,747.79452 L 166.47293,747.74207"
           style="fill:#221f1f;fill-rule:evenodd;stroke:none"
           id="path28" />
        <path
           d="M -96.691739,702.30829 C -96.691739,709.57035 -96.508239,715.62644 -100.17858,722.07579 C -103.1411,727.31917 -107.83391,730.54384 -113.07728,730.54384 C -120.23448,730.54384 -124.40295,725.09072 -124.40295,717.04215 C -124.40295,701.15475 -110.16721,698.2709 -96.691739,698.2709 L -96.691739,702.30829 M -77.894269,747.74207 C -79.126459,748.84318 -80.909219,748.92183 -82.298709,748.18777 C -88.485869,743.04927 -89.586989,740.66354 -92.995179,735.76099 C -103.21975,746.19529 -110.45558,749.31508 -123.72132,749.31508 C -139.399,749.31508 -151.61603,739.64107 -151.61603,720.26684 C -151.61603,705.13971 -143.41016,694.83649 -131.74367,689.80286 C -121.62397,685.34598 -107.49309,684.55949 -96.691739,683.3273 L -96.691739,680.91535 C -96.691739,676.48469 -96.350919,671.24132 -98.946389,667.41368 C -101.22727,663.97926 -105.57925,662.56355 -109.40692,662.56355 C -116.51167,662.56355 -122.85616,666.20769 -124.40295,673.75814 C -124.71756,675.43603 -125.94975,677.08769 -127.62762,677.16634 L -145.71724,675.22628 C -147.23782,674.88548 -148.9157,673.65327 -148.49623,671.31999 C -144.32775,649.40271 -124.53404,642.79605 -106.81144,642.79605 C -97.740429,642.79605 -85.890419,645.208 -78.733219,652.07681 C -69.662179,660.54485 -70.527349,671.84431 -70.527349,684.14002 L -70.527349,713.18828 C -70.527349,721.9185 -66.909409,725.74614 -63.501219,730.46519 C -62.295249,732.14305 -62.033079,734.16175 -63.553659,735.42016 C -67.355099,738.59241 -74.119039,744.4912 -77.841849,747.79452 L -77.894269,747.74207"
           style="fill:#221f1f;fill-rule:evenodd;stroke:none"
           id="path2749" />
      </g>
    </g>
    <path
       style="font-size:92.7631073px;font-style:normal;font-variant:normal;font-weight:normal;font-stretch:normal;text-align:start;line-height:125%;writing-mode:lr-tb;text-anchor:start;fill:#ff9900;fill-opacity:1;stroke:none;stroke-width:1px;stroke-linecap:butt;stroke-linejoin:miter;stroke-opacity:1;font-family:Bitstream Vera Sans;-inkscape-font-specification:Bitstream Vera Sans"
       d="M 428.19329,284.37977 C 428.17444,292.40852 428.23086,300.66367 428.16529,308.55188 C 419.51968,298.49522 403.78378,302.14851 398.62796,315.4582 C 392.72347,330.10685 393.47459,351.16278 404.11546,362.12815 C 410.96563,368.69889 421.82113,368.41963 428.19329,361.04686 C 426.08445,367.8529 439.01923,366.49562 439.25229,363.06992 C 439.25229,336.09575 439.25229,309.1216 439.25229,282.14743 C 436.16861,283.31673 428.27435,279.62501 428.19329,284.37977 z M 693.91726,284.37977 C 693.89841,292.40852 693.95484,300.66367 693.88927,308.55188 C 685.21289,298.50354 669.5517,302.12075 664.35194,315.4582 C 658.28353,330.43613 659.22422,352.2434 670.65137,362.89552 C 677.53023,368.61396 687.76812,368.16579 693.91726,361.04686 C 691.80842,367.8529 704.74321,366.49562 704.97626,363.06992 C 704.97626,336.09575 704.97626,309.1216 704.97626,282.14743 C 701.89259,283.31673 693.99833,279.62501 693.91726,284.37977 z M 883.96408,284.37977 C 884.55885,290.54511 881.33426,301.46874 889.33959,298.40169 C 897.2317,301.42068 894.66762,291.41294 894.99508,285.00762 C 896.91481,280.54202 882.94065,280.87286 883.96408,284.37977 z M 950.34608,284.37977 C 950.94088,290.54511 947.71629,301.46874 955.72159,298.40169 C 963.6305,301.42999 961.08824,291.43776 961.40512,285.00762 C 963.32248,280.53823 949.32357,280.87675 950.34608,284.37977 z M 266.64789,287.58877 C 266.64789,313.49326 266.64789,339.39777 266.64789,365.30227 C 271.08538,364.07549 280.49919,369.04844 278.43483,359.7214 C 278.43483,351.46638 278.43483,343.21135 278.43483,334.95633 C 288.1905,335.32238 300.91098,335.99627 306.65628,323.96901 C 312.29238,311.52915 309.4226,291.8233 297.38911,287.27485 C 287.48789,283.51312 276.84797,286.14559 266.64789,285.35642 L 266.64789,286.4726 L 266.64789,287.58877 z M 624.70752,286.78652 C 616.6926,312.95924 608.66414,339.12554 600.65769,365.30227 C 604.97473,363.75608 613.09596,368.91554 614.19267,361.699 C 616.97544,356.60563 615.82259,344.56561 622.27174,345.94365 C 629.33644,345.94365 636.40113,345.94365 643.46582,345.94365 C 645.31383,352.39645 647.16059,358.8498 649.00932,365.30227 C 652.67985,363.90919 663.69444,368.8264 660.14113,361.22472 C 652.39583,335.93677 644.67476,310.63716 636.91442,285.35642 C 633.24392,286.32093 626.98182,283.39554 624.70752,286.78652 z M 1121.4106,286.78652 C 1113.3957,312.95924 1105.3672,339.12554 1097.3608,365.30227 C 1101.6778,363.75608 1109.7991,368.91554 1110.8957,361.699 C 1113.6786,356.60563 1112.5257,344.56561 1118.9749,345.94365 C 1126.0396,345.94365 1133.1042,345.94365 1140.1689,345.94365 C 1142.0169,352.39645 1143.8637,358.8498 1145.7124,365.30227 C 1149.3829,363.90919 1160.3975,368.8264 1156.8442,361.22472 C 1149.0989,335.93677 1141.3779,310.63716 1133.6175,285.35642 C 1129.947,286.32093 1123.6849,283.39554 1121.4106,286.78652 z M 1162.4829,287.58877 C 1162.4829,313.49326 1162.4829,339.39777 1162.4829,365.30227 C 1166.9203,364.07549 1176.3342,369.04844 1174.2698,359.7214 C 1174.2698,351.46638 1174.2698,343.21135 1174.2698,334.95633 C 1184.2655,335.44729 1197.5221,335.85864 1202.9392,323.06212 C 1207.9434,310.61132 1205.0119,291.67031 1193.2242,287.27485 C 1183.3183,283.49909 1172.6815,286.15632 1162.4829,285.35642 L 1162.4829,286.4726 L 1162.4829,287.58877 z M 1212.6543,287.58877 C 1212.6543,313.49326 1212.6543,339.39777 1212.6543,365.30227 C 1217.0918,364.07549 1226.5057,369.04844 1224.4413,359.7214 C 1224.4413,334.93308 1224.4413,310.14475 1224.4413,285.35642 C 1221.1856,286.55792 1212.8593,282.7859 1212.6543,287.58877 z M 549.45032,290.3792 C 548.60738,295.84003 552.30367,306.95603 544.85874,304.19183 C 543.10973,307.77595 542.37635,319.6423 549.45032,315.91164 C 550.25497,329.16206 547.7571,343.1149 550.8782,355.95432 C 554.33162,367.118 565.95941,365.17821 573.64014,365.30227 C 577.45748,365.76254 577.80561,349.0092 571.42834,353.05925 C 568.49678,352.11305 562.65104,354.96535 561.04128,350.4781 C 559.78698,339.1126 560.92712,327.39527 560.53732,315.91164 C 565.34529,315.14644 572.60543,317.43625 575.90793,314.79547 C 577.32882,306.1422 575.08138,302.05911 567.84466,304.19183 C 560.22509,306.92945 559.59891,300.95439 560.53732,293.03011 C 562.72984,285.1265 551.60875,287.98631 549.45032,289.26303 L 549.45032,290.3792 z M 851.20704,290.3792 C 850.24895,295.55706 854.13478,306.76965 846.95143,304.19183 C 841.20886,301.37767 832.78378,302.89421 827.88515,308.76116 C 829.86616,301.19716 818.85098,304.07995 816.79815,305.308 C 816.79815,325.3061 816.79815,345.30417 816.79815,365.30227 C 821.73029,364.61036 830.33887,368.49873 827.88515,358.60523 C 828.7951,346.39334 825.83017,333.1314 829.90097,321.59714 C 833.31729,314.19389 842.07739,313.93549 847.03542,319.05088 C 849.07856,309.75769 853.24101,321.28771 851.20704,327.07336 C 852.16355,338.2007 848.54876,352.34208 855.57465,361.29102 C 861.88992,367.08281 870.36415,364.77622 877.66465,365.30227 C 878.26094,357.50192 878.51336,350.12998 870.4973,353.05925 C 867.47686,353.20586 861.96517,353.71884 862.43403,348.03648 C 862.08907,337.34222 862.40005,326.61685 862.29404,315.91164 C 867.10201,315.14644 874.36215,317.43625 877.66465,314.79547 C 879.08554,306.1422 876.83809,302.05911 869.60138,304.19183 C 861.9818,306.92945 861.35563,300.95439 862.29404,293.03011 C 864.48656,285.1265 853.36546,287.98631 851.20704,289.26303 L 851.20704,290.3792 z M 286.86206,298.19241 C 292.66221,297.25456 298.07299,303.49693 297.10914,310.95863 C 297.51632,319.00556 290.74439,323.37699 285.07023,322.12035 C 277.05766,325.25456 278.133,317.06667 278.43483,309.84245 C 277.68453,302.0479 277.80186,295.33426 285.60218,298.19241 L 286.4981,298.19241 L 286.86206,298.19241 z M 1182.7251,298.19241 C 1188.7731,297.14755 1194.1678,304.10061 1192.9161,311.62135 C 1193.0564,319.31117 1186.3777,323.28501 1180.9332,322.12035 C 1172.9193,325.24464 1173.9529,317.09707 1174.2698,309.84245 C 1173.5195,302.0479 1173.6369,295.33426 1181.4372,298.19241 L 1182.3331,298.19241 L 1182.7251,298.19241 z M 338.65738,302.86638 C 334.01071,302.85909 329.2274,304.74705 325.83454,308.72628 C 327.79158,301.20084 316.78883,304.08498 314.74754,305.308 C 314.74754,325.3061 314.74754,345.30417 314.74754,365.30227 C 319.67968,364.61036 328.28826,368.49873 325.83454,358.60523 C 326.74182,346.37561 323.79217,333.15286 327.82236,321.6669 C 331.13574,314.23545 340.12991,313.76749 344.92881,319.22528 C 343.7538,314.2132 347.61386,303.74746 342.29705,303.1803 C 341.0972,302.95932 339.87705,302.75852 338.65738,302.86638 z M 365.64694,302.86638 C 354.57365,302.56077 345.38565,314.46366 344.62084,327.91049 C 342.70545,342.15985 346.53137,360.24557 358.64757,365.19762 C 369.35045,369.91689 383.13543,364.57775 387.26099,350.6525 C 391.80409,335.56187 390.274,314.06257 377.74185,305.83121 C 374.01488,303.44394 369.80309,302.65321 365.64694,302.86638 z M 523.86064,302.86638 C 512.43679,302.51243 501.97607,313.82153 500.95871,327.98025 C 498.7029,342.61328 503.78767,360.45647 515.99335,365.12786 C 523.90636,368.18566 532.76778,366.88146 540.09917,362.30255 C 539.19005,358.01624 542.67155,344.74666 536.69963,350.81649 C 529.42567,356.1223 516.9486,356.60514 513.44558,345.10652 C 510.15848,334.58124 511.83164,317.66874 522.46076,315.52796 C 528.67162,314.10216 534.80772,317.18061 540.09917,320.9693 C 539.12267,316.26801 542.30796,308.25997 538.16734,306.07537 C 533.64816,303.74848 528.75846,302.62052 523.86064,302.86638 z M 785.46899,302.86638 C 773.50022,302.59345 763.51673,315.55187 762.90303,330.10796 C 761.12024,344.29965 766.6238,360.53659 778.27364,364.8837 C 787.58076,368.6275 797.89087,366.45931 806.66307,361.67471 C 805.71382,357.35485 809.31356,343.89999 803.25342,349.88447 C 795.4759,354.61192 783.98972,357.74834 777.29372,348.8736 C 775.52187,346.13063 774.66296,342.69776 774.242,339.21174 C 785.62764,339.21174 797.01328,339.21174 808.39891,339.21174 C 809.31583,326.73384 806.94081,311.70892 797.11593,305.69169 C 793.59536,303.41935 789.45187,302.67389 785.46899,302.86638 z M 922.15258,302.86638 C 913.70425,302.33868 903.87512,309.03912 904.01022,320.76001 C 903.06476,330.3547 909.59395,338.02791 916.80511,339.35126 C 921.14951,341.43945 927.49145,340.62713 930.41188,345.80413 C 932.31446,351.80836 926.57663,354.83082 922.68458,354.48935 C 915.92693,354.89931 909.48124,351.7934 903.67425,347.72255 C 904.76289,352.71903 901.1543,361.92158 905.99809,363.55825 C 916.7493,367.56779 931.14994,369.88582 939.25908,358.04715 C 944.978,348.9601 941.52343,333.66854 932.25971,330.77069 C 926.91995,327.51386 919.55594,328.77288 915.20921,323.48068 C 913.09386,318.05178 918.69138,314.6414 922.32066,315.17915 C 928.36094,314.53307 934.30053,316.81681 939.5671,320.44609 C 938.59341,315.7815 941.79892,307.4188 937.57923,305.62193 C 932.64944,303.44267 927.37642,302.72378 922.15258,302.86638 z M 996.51386,302.86638 C 991.97988,302.86425 987.41768,305.04814 984.19497,309.04021 C 986.36435,301.1737 975.2546,304.03697 973.10798,305.308 C 973.10807,325.3061 973.10798,345.30417 973.10798,365.30227 C 978.04019,364.61036 986.64872,368.49873 984.19497,358.60523 C 984.93688,346.82043 982.6712,334.42724 985.39891,322.99236 C 988.07439,313.344 1002.2404,312.12146 1003.2893,323.51557 C 1004.2585,337.381 1003.4397,351.38429 1003.7093,365.30227 C 1008.6387,364.61861 1017.2206,368.48544 1014.7682,358.60523 C 1013.8788,343.99398 1016.7938,328.52336 1012.6965,314.48155 C 1010.0901,306.47355 1003.2425,302.3166 996.51386,302.86638 z M 1042.1778,302.86638 C 1030.1347,303.07628 1022.5792,318.63932 1022.9155,332.44494 C 1021.9723,346.30517 1028.0097,362.97189 1040.05,365.02322 C 1045.6133,366.33426 1052.2225,363.87506 1056.0085,359.96557 C 1056.3364,368.01244 1050.7597,375.44922 1044.0537,374.65021 C 1038.45,375.06088 1033.083,372.34864 1028.3751,368.7903 C 1029.4158,373.57982 1026.0255,382.33951 1030.4468,384.10279 C 1041.0099,388.1717 1055.5198,389.34981 1062.8399,376.91743 C 1069.9204,363.16898 1066.0901,345.72233 1067.0955,330.35212 C 1067.0955,321.63202 1067.0955,312.91193 1067.0955,304.19183 C 1062.6447,304.43012 1054.8526,302.44537 1055.6166,308.06355 C 1051.9934,304.0042 1046.9531,302.57546 1042.1778,302.86638 z M 639.60217,332.96815 C 633.89069,332.96815 628.17921,332.96815 622.46772,332.96815 C 625.32346,323.32953 628.17921,313.69093 631.03495,304.05231 C 633.89069,313.69093 636.74643,323.32953 639.60217,332.96815 z M 1136.3053,332.96815 C 1130.5938,332.96815 1124.8823,332.96815 1119.1708,332.96815 C 1122.0266,323.32953 1124.8823,313.69093 1127.738,304.05231 C 1130.5938,313.69093 1133.4495,323.32953 1136.3053,332.96815 z M 450.28329,306.42418 C 450.98852,321.42656 448.84934,336.88058 451.37519,351.62915 C 453.9743,367.58748 471.87842,371.4648 480.54855,360.94222 C 479.38223,367.08124 486.6852,365.09578 491.01961,365.30227 C 493.09374,360.81722 491.33046,351.55136 491.91553,345.21116 C 491.91553,331.53805 491.91553,317.86494 491.91553,304.19183 C 486.9861,304.87549 478.40414,301.00865 480.85653,310.88887 C 480.08715,322.66915 482.41221,335.21418 479.68063,346.5715 C 477.18418,355.52752 464.09308,357.70704 462.07022,347.51327 C 460.30947,333.27048 461.81161,318.59395 461.31429,304.19183 C 458.23719,305.35915 450.35971,301.67253 450.28329,306.42418 z M 711.52767,307.19155 C 717.35349,326.56068 723.16096,345.93845 728.99809,365.30227 C 733.15278,363.91022 740.51562,368.30117 742.38748,362.79218 C 748.26269,343.25777 754.15432,323.73101 760.01929,304.19183 C 755.54164,305.53109 747.53311,300.54237 746.90354,308.79533 C 743.0442,321.72457 739.18486,334.65379 735.32552,347.58303 C 730.99222,333.12072 726.68223,318.64746 722.33469,304.19183 C 719.46844,305.47775 708.67968,301.17484 711.52767,307.19155 z M 883.96408,306.42418 C 883.96408,326.0502 883.96408,345.67624 883.96408,365.30227 C 888.89081,364.62688 897.44618,368.47218 894.99508,358.60523 C 894.99508,340.46743 894.99508,322.32963 894.99508,304.19183 C 891.91798,305.35915 884.0405,301.67253 883.96408,306.42418 z M 950.34608,306.42418 C 950.34608,326.0502 950.34608,345.67624 950.34608,365.30227 C 955.27552,364.61861 963.85743,368.48544 961.40512,358.60523 C 961.40512,340.46743 961.40512,322.32963 961.40512,304.19183 C 958.32137,305.36113 950.42716,301.66942 950.34608,306.42418 z M 417.24628,315.07451 C 426.14203,314.92942 428.98497,328.15502 428.13729,337.1538 C 428.51928,345.92786 423.31017,356.56068 415.34245,354.31494 C 406.22854,351.91327 405.55083,337.35831 406.77522,328.0849 C 407.57698,321.40195 411.28106,314.78933 417.24628,315.07451 z M 682.97025,315.07451 C 691.89529,314.9389 694.66275,328.22598 693.86127,337.22356 C 694.19127,345.90331 689.03484,356.57034 681.06642,354.31494 C 672.23794,352.09865 671.35159,338.13971 672.35921,329.09643 C 673.0101,322.09659 676.65663,314.77521 682.97025,315.07451 z M 1045.0895,315.07451 C 1053.4789,314.60787 1056.7937,326.66644 1056.0366,335.27025 C 1056.5996,343.95339 1051.7858,354.73937 1043.7736,352.95461 C 1034.7215,351.81148 1033.311,337.53459 1034.4784,328.64298 C 1035,321.67119 1038.9381,314.65334 1045.0895,315.07451 z M 366.87883,315.17915 C 376.04599,315.02264 379.03929,328.98055 377.90983,338.23509 C 378.04807,347.07422 372.11892,356.78138 364.38706,354.07078 C 355.43088,351.13277 354.77065,336.55355 356.32378,327.14313 C 357.36133,320.822 361.28163,314.85993 366.87883,315.17915 z M 786.81286,315.17915 C 792.39173,314.67228 797.00293,320.79847 797.22792,327.45705 C 789.80503,327.23201 781.50612,327.99111 774.60597,327.17801 C 775.48657,319.89246 780.89923,314.69774 786.81286,315.17915 z"
       id="text2753" />
  </g>
</svg>
