<?xml version="1.0" encoding="UTF-8" standalone="no"?>
<!-- Created with Inkscape (http://www.inkscape.org/) -->

<svg
   xmlns:dc="http://purl.org/dc/elements/1.1/"
   xmlns:cc="http://creativecommons.org/ns#"
   xmlns:rdf="http://www.w3.org/1999/02/22-rdf-syntax-ns#"
   xmlns:svg="http://www.w3.org/2000/svg"
   xmlns="http://www.w3.org/2000/svg"
   xmlns:sodipodi="http://sodipodi.sourceforge.net/DTD/sodipodi-0.dtd"
   xmlns:inkscape="http://www.inkscape.org/namespaces/inkscape"
   inkscape:export-ydpi="90"
   inkscape:export-xdpi="90"
   inkscape:export-filename="bb-logo.png"
   inkscape:output_extension="org.inkscape.output.svg.inkscape"
   sodipodi:docname="bb-logo.svg"
   inkscape:version="0.48.0 r9654"
   sodipodi:version="0.32"
   id="svg1936"
   height="128"
   width="128"
   version="1.0">
  <metadata
     id="metadata20">
    <rdf:RDF>
      <cc:Work
         rdf:about="">
        <dc:format>image/svg+xml</dc:format>
        <dc:type
           rdf:resource="http://purl.org/dc/dcmitype/StillImage" />
        <dc:title></dc:title>
        <dc:creator>
          <cc:Agent>
            <dc:title>Sebastian Rahlf &lt;basti AT redtoad DOT de&gt;</dc:title>
          </cc:Agent>
        </dc:creator>
        <cc:license
           rdf:resource="http://creativecommons.org/licenses/by-nc-sa/3.0/" />
      </cc:Work>
      <cc:License
         rdf:about="http://creativecommons.org/licenses/by-nc-sa/3.0/">
        <cc:permits
           rdf:resource="http://creativecommons.org/ns#Reproduction" />
        <cc:permits
           rdf:resource="http://creativecommons.org/ns#Distribution" />
        <cc:requires
           rdf:resource="http://creativecommons.org/ns#Notice" />
        <cc:requires
           rdf:resource="http://creativecommons.org/ns#Attribution" />
        <cc:prohibits
           rdf:resource="http://creativecommons.org/ns#CommercialUse" />
        <cc:permits
           rdf:resource="http://creativecommons.org/ns#DerivativeWorks" />
        <cc:requires
           rdf:resource="http://creativecommons.org/ns#ShareAlike" />
      </cc:License>
    </rdf:RDF>
  </metadata>
  <sodipodi:namedview
     inkscape:window-height="1028"
     inkscape:window-width="1920"
     inkscape:pageshadow="2"
     inkscape:pageopacity="0.0"
     guidetolerance="10.0"
     gridtolerance="10.0"
     objecttolerance="10.0"
     borderopacity="1.0"
     bordercolor="#666666"
     pagecolor="#ffffff"
     id="base"
     inkscape:zoom="6.3203125"
     inkscape:cx="28.188969"
     inkscape:cy="68.027992"
     inkscape:window-x="-8"
     inkscape:window-y="-8"
     inkscape:current-layer="svg1936"
     showguides="true"
     inkscape:guide-bbox="true"
     showgrid="false"
     inkscape:window-maximized="1"
     fit-margin-top="0"
     fit-margin-left="0"
     fit-margin-right="0"
     fit-margin-bottom="0" />
  <defs
     id="defs1938">
    <inkscape:perspective
       sodipodi:type="inkscape:persp3d"
       inkscape:vp_x="0 : 96.034462 : 1"
       inkscape:vp_y="0 : 1000 : 0"
       inkscape:vp_z="1166.3524 : 96.034462 : 1"
       inkscape:persp3d-origin="583.17621 : 64.022975 : 1"
       id="perspective19" />
    <inkscape:perspective
       id="perspective2396"
       inkscape:persp3d-origin="372.04724 : 350.78739 : 1"
       inkscape:vp_z="744.09448 : 526.18109 : 1"
       inkscape:vp_y="0 : 1000 : 0"
       inkscape:vp_x="0 : 526.18109 : 1"
       sodipodi:type="inkscape:persp3d" />
    <inkscape:perspective
       id="perspective2496"
       inkscape:persp3d-origin="583.17621 : 64.022975 : 1"
       inkscape:vp_z="1166.3524 : 96.034462 : 1"
       inkscape:vp_y="0 : 1000 : 0"
       inkscape:vp_x="0 : 96.034462 : 1"
       sodipodi:type="inkscape:persp3d" />
    <filter
       inkscape:collect="always"
       id="filter3170"
       color-interpolation-filters="sRGB">
      <feGaussianBlur
         inkscape:collect="always"
         stdDeviation="0.91117641"
         id="feGaussianBlur3172" />
    </filter>
  </defs>
  <rect
     style="color:#000000;fill:#5b9fd4;fill-opacity:1;fill-rule:nonzero;stroke:none;stroke-width:0.40000001;marker:none;visibility:visible;display:inline;overflow:visible;enable-background:accumulate"
     id="rect3110"
     width="127.97598"
     height="128"
     x="0.02402485"
     y="-2.8967057e-007" />
  <path
     id="path3095"
     style="color:#000000;fill:#585859;fill-opacity:1;fill-rule:nonzero;stroke:none;stroke-width:0.40000001000000002;marker:none;visibility:visible;display:inline;overflow:visible;enable-background:accumulate"
     d="m 25.977378,36.475483 c 0,-8.446362 16.990138,-15.293492 37.948544,-15.293492 20.958402,0 37.948538,6.84713 37.948538,15.293492 l -9.664683,59.783652 c 0,6.066025 -12.663112,10.983515 -28.283855,10.983515 -15.620747,0 -28.28386,-4.91749 -28.28386,-10.983515 z"
     inkscape:connector-curvature="0"
     sodipodi:nodetypes="csccscc" />
  <path
     sodipodi:type="arc"
     style="color:#000000;fill:#fdd43c;fill-opacity:1;fill-rule:nonzero;stroke:none;stroke-width:0.40000001;marker:none;visibility:visible;display:inline;overflow:visible;enable-background:accumulate"
     id="path3091"
     sodipodi:cx="-523.2915"
     sodipodi:cy="-7.5313807"
     sodipodi:rx="85.913528"
     sodipodi:ry="28.172943"
     d="m -437.37798,-7.5313807 a 85.913528,28.172943 0 1 1 -171.82705,0 85.913528,28.172943 0 1 1 171.82705,0 z"
     transform="matrix(0.33730295,0,0,0.38986017,240.43369,47.336479)" />
  <path
     style="color:#000000;fill:#d1d2d4;fill-opacity:1;fill-rule:nonzero;stroke:none;stroke-width:0.40000001;marker:none;visibility:visible;display:inline;overflow:visible;enable-background:accumulate"
     d="m 63.92825,21.187378 c -20.958402,0 -37.951345,6.849172 -37.951345,15.295535 0,8.446363 16.992943,15.279959 37.951345,15.279959 20.958401,0 37.95134,-6.833596 37.95134,-15.279959 0,-8.446363 -16.992939,-15.295535 -37.95134,-15.295535 z m 0,4.719498 c 16.004595,0 28.98131,4.740368 28.98131,10.576037 0,5.835669 -12.976715,10.560461 -28.98131,10.560461 -16.004595,0 -28.98131,-4.724792 -28.98131,-10.560461 0,-5.835669 12.976715,-10.576037 28.98131,-10.576037 z"
     id="path3087"
     inkscape:connector-curvature="0" />
  <path
     transform="matrix(0.33730295,0,0,0.37505535,240.43369,39.300168)"
     d="m -437.37798,-7.5313807 a 85.913528,28.172943 0 1 1 -171.82705,0 85.913528,28.172943 0 1 1 171.82705,0 z"
     sodipodi:ry="28.172943"
     sodipodi:rx="85.913528"
     sodipodi:cy="-7.5313807"
     sodipodi:cx="-523.2915"
     id="path3089"
     style="color:#000000;fill:none;stroke:#999999;stroke-width:2.36730568;marker:none;visibility:visible;display:inline;overflow:visible;enable-background:accumulate;stroke-miterlimit:4;stroke-dasharray:none"
     sodipodi:type="arc" />
  <path
     style="color:#000000;fill:#f3f3f4;fill-opacity:1;fill-rule:nonzero;stroke:none;stroke-width:0.40000001;marker:none;visibility:visible;display:inline;overflow:visible;enable-background:accumulate"
     d="m 26.288364,38.398749 9.35936,57.864473 c 0,6.066028 12.659778,10.981008 28.280526,10.981008 15.620742,0 28.280526,-4.91498 28.280526,-10.981008 l 9.359354,-57.864473 c -2.341204,7.539462 -18.293016,13.364123 -37.63988,13.364123 -19.346865,0 -35.298677,-5.824661 -37.639886,-13.364123 z"
     id="path3105"
     inkscape:connector-curvature="0"
     sodipodi:nodetypes="ccsccsc" />
  <g
     id="g3152"
     transform="matrix(0.4518444,0,0,0.45192923,303.67339,65.79014)">
    <path
       sodipodi:type="arc"
       style="opacity:0;color:#000000;fill:#ffffff;fill-opacity:1;fill-rule:nonzero;stroke:none;stroke-width:0.40000001;marker:none;visibility:visible;display:inline;overflow:visible;enable-background:accumulate"
       id="path3112"
       sodipodi:cx="-154.53278"
       sodipodi:cy="49.093445"
       sodipodi:rx="53.835426"
       sodipodi:ry="53.835426"
       d="m -100.69735,49.093445 c 0,29.732485 -24.10294,53.835425 -53.83543,53.835425 -29.73248,0 -53.83542,-24.10294 -53.83542,-53.835425 0,-29.732485 24.10294,-53.8354265 53.83542,-53.8354265 29.73249,0 53.83543,24.1029415 53.83543,53.8354265 z"
       transform="matrix(1.1888083,0,0,1.1888083,-346.69816,-28.417178)"
       inkscape:export-filename="bb-logo.png"
       inkscape:export-xdpi="90.010002"
       inkscape:export-ydpi="90.010002" />
    <g
       id="g3114"
       transform="matrix(0.84162458,0,0,0.84162458,-425.52345,-145.44722)">
      <path
         transform="matrix(0.83697132,0,0,0.83697132,-207.92486,127.16596)"
         inkscape:connector-curvature="0"
         style="opacity:0.6;fill:#808080;fill-opacity:1;fill-rule:evenodd;stroke:none;filter:url(#filter3170)"
         d="m 147.69081,137.85144 c -4.84824,4.59693 -5.34774,9.61375 -9.2196,14.18936 -14.7294,3.82892 -37.30527,3.20789 -53.542147,3.66288 -23.038392,0 -36.189514,-3.98431 -57.931219,-21.81703 -2.821603,-1.65538 -4.935464,1.23382 -2.584141,3.35948 18.711833,18.91904 39.584306,29.27132 65.830517,31.47753 17.03582,-1e-5 31.90744,-0.62185 44.66246,-6.30915 12.75502,-5.68731 20.50587,-3.45937 24.4227,-5.83911 3.83232,-2.32838 4.48362,-5.66215 6.18021,-8.51679 2.60381,-4.38112 6.07166,-9.0273 4.32843,-11.98156 -1.74324,-2.95427 -7.6109,-1.73682 -13.31201,-0.44725 -3.49366,0.79024 -7.37997,0.92621 -8.8352,2.22164 z"
         id="path3116"
         sodipodi:nodetypes="cccccczzszsc" />
      <path
         inkscape:connector-curvature="0"
         d="m -67.122582,240.13907 c 5.39598,-1.45639 6.47777,-2.72809 6.47777,-2.72809 l 0.40043,-3.13629 m -0.44919,3.03812 2.39961,0.88872"
         style="fill:none;stroke:#aa0000;stroke-width:0.83697134px;stroke-linecap:butt;stroke-linejoin:miter;stroke-opacity:1"
         id="path3118" />
      <path
         inkscape:connector-curvature="0"
         sodipodi:nodetypes="cccccczzszsc"
         id="path3120"
         d="m -84.311882,240.86972 c -4.05784,3.8475 -4.47591,8.04643 -7.71654,11.87609 -12.328088,3.20469 -31.223438,2.68491 -44.813248,3.06572 -19.28247,0 -30.28958,-3.33475 -48.48677,-18.26023 -2.3616,-1.3855 -4.13084,1.03267 -2.16285,2.81179 15.66127,15.8347 33.13093,24.49926 55.09826,26.34579 14.25849,-1e-5 26.70561,-0.52047 37.381198,-5.28058 10.67558,-4.76011 17.16282,-2.89539 20.4411,-4.88716 3.20754,-1.94879 3.75266,-4.73906 5.17266,-7.12831 2.17931,-3.66687 5.0818,-7.55559 3.62277,-10.02823 -1.45904,-2.47263 -6.37011,-1.45366 -11.14177,-0.37433 -2.9241,0.66141 -6.17683,0.77521 -7.39481,1.85945 z"
         style="fill:#72ba45;fill-opacity:1;fill-rule:evenodd;stroke:#000000;stroke-width:0.83697134" />
      <path
         transform="matrix(0.59525224,0,0,0.59527074,-190.48685,163.18911)"
         d="m 101.0556,165.05592 c 0,3.36452 -2.727479,6.09201 -6.092,6.09201 -3.364521,0 -6.092004,-2.72749 -6.092004,-6.09201 0,-3.36452 2.727483,-6.092 6.092004,-6.092 3.364521,0 6.092,2.72748 6.092,6.092 z"
         sodipodi:ry="6.0920043"
         sodipodi:rx="6.0920043"
         sodipodi:cy="165.05592"
         sodipodi:cx="94.9636"
         id="path3122"
         style="opacity:0.33999999;fill:#4d4d4d;fill-opacity:1;stroke:none"
         sodipodi:type="arc" />
      <path
         inkscape:connector-curvature="0"
         id="path3124"
         style="fill:#000000;fill-rule:evenodd;stroke:none"
         d="m -119.81245,204.50052 c 0,6.74061 0.17033,12.36184 -3.23636,18.34808 -2.74972,4.86688 -7.10542,7.86001 -11.97214,7.86001 -6.64307,0 -10.5121,-5.06156 -10.5121,-12.5322 0,-14.7466 13.21313,-17.42337 25.7206,-17.42337 l 0,3.74748 m 17.44717,42.17139 c -1.14367,1.02205 -2.79837,1.09505 -4.08804,0.4137 -5.74271,-4.76954 -6.76474,-6.98396 -9.9281,-11.53448 -9.49011,9.68507 -16.20616,12.58085 -28.51896,12.58085 -14.55149,0 -25.89092,-8.97938 -25.89092,-26.96243 0,-14.04092 7.61641,-23.60432 18.44485,-28.2765 9.39276,-4.13685 22.50856,-4.86687 32.534,-6.01058 l 0,-2.23876 c 0,-4.11252 0.31634,-8.97938 -2.09268,-12.53218 -2.11704,-3.18781 -6.1564,-4.50186 -9.70912,-4.50186 -6.59438,0 -12.48312,3.38247 -13.9188,10.39076 -0.29201,1.5574 -1.43568,3.09047 -2.99302,3.16347 l -16.79017,-1.80076 c -1.41135,-0.31632 -2.9687,-1.46005 -2.57936,-3.62579 3.86904,-20.3435 22.24088,-26.47577 38.69039,-26.47577 8.41941,0 19.41819,2.23876 26.06126,8.61435 8.419428,7.85999 7.616398,18.34809 7.616398,29.7609 l 0,26.96244 c 0,8.10334 3.35805,11.65613 6.52141,16.03634 1.11934,1.55738 1.36269,3.43112 -0.0487,4.59917 -3.52837,2.94446 -9.80642,8.41969 -13.261808,11.48581 l -0.0487,-0.0487" />
      <path
         inkscape:connector-curvature="0"
         style="opacity:0.52999998;fill:#ffff00;fill-opacity:1;fill-rule:evenodd;stroke:none"
         d="m -84.311892,240.86972 c -4.05784,3.8475 -4.4759,8.04643 -7.71654,11.87609 -12.328078,3.2047 -31.223428,2.68492 -44.813238,3.06572 -19.28247,0 -30.28958,-3.33474 -48.48677,-18.26023 19.67102,16.12179 17.09836,14.32005 38.36419,20.47659 19.98852,2.27685 37.55651,1.33974 50.712318,-0.63005 13.20468,-1.9771 11.58235,-11.26635 14.86063,-13.25812 6.15091,-3.09057 9.09759,-3.31478 15.61599,-4.75511 0.31789,-2.68047 -6.37011,-1.45367 -11.14177,-0.37434 -2.92409,0.66142 -6.17682,0.77522 -7.39481,1.85945 z"
         id="path3126"
         sodipodi:nodetypes="ccccczccsc" />
      <path
         inkscape:connector-curvature="0"
         style="opacity:0.31999996;fill:#333333;fill-opacity:1;fill-rule:evenodd;stroke:none"
         d="m -74.856102,254.04623 c -4.05784,3.84749 -11.91651,-0.0145 -15.15716,3.81516 -12.328078,3.20471 -28.898248,6.0953 -42.488048,6.47612 -30.07033,-3.23763 -41.56285,-14.58997 -54.98998,-23.97441 15.66127,15.83469 33.13093,24.49925 55.09826,26.34578 14.25849,-1e-5 26.7056,-0.52047 37.381198,-5.28058 10.67558,-4.76011 17.16282,-2.89539 20.4411,-4.88716 3.20753,-1.94879 3.75266,-4.73906 5.17266,-7.12831 2.1793,-3.66687 5.08179,-7.55559 3.62276,-10.02822 -4.79431,7.50876 -5.2291,6.02891 -9.08079,14.66162 z"
         id="path3128"
         sodipodi:nodetypes="ccccczzscc" />
      <path
         transform="matrix(0.59525224,0,0,0.59527074,-178.06985,163.01665)"
         d="m 101.0556,165.05592 c 0,3.36452 -2.727479,6.09201 -6.092,6.09201 -3.364521,0 -6.092004,-2.72749 -6.092004,-6.09201 0,-3.36452 2.727483,-6.092 6.092004,-6.092 3.364521,0 6.092,2.72748 6.092,6.092 z"
         sodipodi:ry="6.0920043"
         sodipodi:rx="6.0920043"
         sodipodi:cy="165.05592"
         sodipodi:cx="94.9636"
         id="use3130"
         style="opacity:0.33999999;fill:#4d4d4d;fill-opacity:1;stroke:none"
         sodipodi:type="arc" />
      <path
         transform="matrix(0.59525224,0,0,0.59527074,-163.7558,161.89563)"
         d="m 101.0556,165.05592 c 0,3.36452 -2.727479,6.09201 -6.092,6.09201 -3.364521,0 -6.092004,-2.72749 -6.092004,-6.09201 0,-3.36452 2.727483,-6.092 6.092004,-6.092 3.364521,0 6.092,2.72748 6.092,6.092 z"
         sodipodi:ry="6.0920043"
         sodipodi:rx="6.0920043"
         sodipodi:cy="165.05592"
         sodipodi:cx="94.9636"
         id="use3132"
         style="opacity:0.33999999;fill:#4d4d4d;fill-opacity:1;stroke:none"
         sodipodi:type="arc" />
      <path
         transform="matrix(0.59525224,0,0,0.59527074,-152.20109,159.56737)"
         d="m 101.0556,165.05592 c 0,3.36452 -2.727479,6.09201 -6.092,6.09201 -3.364521,0 -6.092004,-2.72749 -6.092004,-6.09201 0,-3.36452 2.727483,-6.092 6.092004,-6.092 3.364521,0 6.092,2.72748 6.092,6.092 z"
         sodipodi:ry="6.0920043"
         sodipodi:rx="6.0920043"
         sodipodi:cy="165.05592"
         sodipodi:cx="94.9636"
         id="use3134"
         style="opacity:0.33999999;fill:#4d4d4d;fill-opacity:1;stroke:none"
         sodipodi:type="arc" />
      <path
         transform="matrix(0.51518236,0,0,0.51519837,-195.18431,174.89773)"
         d="m 101.0556,165.05592 c 0,3.36452 -2.727479,6.09201 -6.092,6.09201 -3.364521,0 -6.092004,-2.72749 -6.092004,-6.09201 0,-3.36452 2.727483,-6.092 6.092004,-6.092 3.364521,0 6.092,2.72748 6.092,6.092 z"
         sodipodi:ry="6.0920043"
         sodipodi:rx="6.0920043"
         sodipodi:cy="165.05592"
         sodipodi:cx="94.9636"
         id="use3136"
         style="opacity:0.33999999;fill:#4d4d4d;fill-opacity:1;stroke:none"
         sodipodi:type="arc" />
      <path
         transform="matrix(0.46078464,0,0,0.46079896,-202.68067,180.8573)"
         d="m 101.0556,165.05592 c 0,3.36452 -2.727479,6.09201 -6.092,6.09201 -3.364521,0 -6.092004,-2.72749 -6.092004,-6.09201 0,-3.36452 2.727483,-6.092 6.092004,-6.092 3.364521,0 6.092,2.72748 6.092,6.092 z"
         sodipodi:ry="6.0920043"
         sodipodi:rx="6.0920043"
         sodipodi:cy="165.05592"
         sodipodi:cx="94.9636"
         id="use3138"
         style="opacity:0.33999999;fill:#4d4d4d;fill-opacity:1;stroke:none"
         sodipodi:type="arc" />
      <path
         transform="matrix(0.41124394,0,0,0.41125672,-210.60868,183.04143)"
         d="m 101.0556,165.05592 c 0,3.36452 -2.727479,6.09201 -6.092,6.09201 -3.364521,0 -6.092004,-2.72749 -6.092004,-6.09201 0,-3.36452 2.727483,-6.092 6.092004,-6.092 3.364521,0 6.092,2.72748 6.092,6.092 z"
         sodipodi:ry="6.0920043"
         sodipodi:rx="6.0920043"
         sodipodi:cy="165.05592"
         sodipodi:cx="94.9636"
         id="use3140"
         style="opacity:0.33999999;fill:#4d4d4d;fill-opacity:1;stroke:none"
         sodipodi:type="arc" />
      <path
         sodipodi:type="arc"
         style="opacity:0.7;fill:#4d4d4d;fill-opacity:1;stroke:none"
         id="path3142"
         sodipodi:cx="94.9636"
         sodipodi:cy="165.05592"
         sodipodi:rx="6.0920043"
         sodipodi:ry="6.0920043"
         d="m 101.0556,165.05592 c 0,3.36452 -2.727479,6.09201 -6.092,6.09201 -3.364521,0 -6.092004,-2.72749 -6.092004,-6.09201 0,-3.36452 2.727483,-6.092 6.092004,-6.092 3.364521,0 6.092,2.72748 6.092,6.092 z"
         transform="matrix(0.2449466,0,0,0.24495422,-102.77145,202.90131)" />
      <path
         sodipodi:type="arc"
         style="opacity:0.7;fill:#4d4d4d;fill-opacity:1;stroke:none"
         id="use3144"
         sodipodi:cx="94.9636"
         sodipodi:cy="165.05592"
         sodipodi:rx="6.0920043"
         sodipodi:ry="6.0920043"
         d="m 101.0556,165.05592 c 0,3.36452 -2.727479,6.09201 -6.092,6.09201 -3.364521,0 -6.092004,-2.72749 -6.092004,-6.09201 0,-3.36452 2.727483,-6.092 6.092004,-6.092 3.364521,0 6.092,2.72748 6.092,6.092 z"
         transform="matrix(0.2449466,0,0,0.24495422,-97.033838,209.65909)" />
      <path
         sodipodi:nodetypes="csssccsssc"
         d="m -92.836742,145.39889 c 3.43689,0 6.29091,2.77364 6.29091,6.27083 0,3.41679 -2.81382,6.29092 -6.29091,6.29092 -3.45699,0 -6.27082,-2.81384 -6.27082,-6.29092 0,-3.5374 2.85403,-6.27083 6.27082,-6.27083 m 0.0201,-1.20593 c -4.01975,0 -7.496838,3.25601 -7.496838,7.49685 0,4.16045 3.416788,7.47676 7.496838,7.47676 4.10015,0 7.47675,-3.3565 7.47675,-7.47676 0,-4.24084 -3.43689,-7.49685 -7.47675,-7.49685"
         style="fill:#000000;fill-rule:evenodd;stroke:none"
         id="path3146"
         inkscape:connector-curvature="0" />
      <text
         transform="scale(-1,1)"
         sodipodi:linespacing="125%"
         id="text3148"
         y="156.00084"
         x="92.853249"
         style="font-size:12.07304859px;font-style:normal;font-variant:normal;font-weight:bold;font-stretch:normal;text-align:center;line-height:125%;letter-spacing:0px;word-spacing:0px;writing-mode:lr-tb;text-anchor:middle;fill:#000000;fill-opacity:1;stroke:none;font-family:Arial;-inkscape-font-specification:Arial Bold"
         xml:space="preserve"><tspan
           y="156.00084"
           x="92.853249"
           id="tspan3150"
           sodipodi:role="line">C</tspan></text>
    </g>
  </g>
</svg>
