<?xml version="1.0" encoding="UTF-8" standalone="no"?>
<!-- Created with Inkscape (http://www.inkscape.org/) -->
<svg
   xmlns:dc="http://purl.org/dc/elements/1.1/"
   xmlns:cc="http://creativecommons.org/ns#"
   xmlns:rdf="http://www.w3.org/1999/02/22-rdf-syntax-ns#"
   xmlns:svg="http://www.w3.org/2000/svg"
   xmlns="http://www.w3.org/2000/svg"
   xmlns:xlink="http://www.w3.org/1999/xlink"
   xmlns:sodipodi="http://sodipodi.sourceforge.net/DTD/sodipodi-0.dtd"
   xmlns:inkscape="http://www.inkscape.org/namespaces/inkscape"
   version="1.0"
   width="200"
   height="200"
   id="svg1936"
   sodipodi:version="0.32"
   inkscape:version="0.46"
   sodipodi:docname="logo.svg"
   inkscape:output_extension="org.inkscape.output.svg.inkscape"
   sodipodi:docbase="C:\Dokumente und Einstellungen\sebastian\Desktop\django_intranet\reviews\images"
   inkscape:export-filename="/home/basti/Desktop/logo.png"
   inkscape:export-xdpi="72"
   inkscape:export-ydpi="72">
  <metadata
     id="metadata20">
    <rdf:RDF>
      <cc:Work
         rdf:about="">
        <dc:format>image/svg+xml</dc:format>
        <dc:type
           rdf:resource="http://purl.org/dc/dcmitype/StillImage" />
        <dc:title>python-amazon Logo</dc:title>
        <dc:creator>
          <cc:Agent>
            <dc:title>Sebastian Rahlf &lt;basti AT redtoad DOT de&gt;</dc:title>
          </cc:Agent>
        </dc:creator>
        <cc:license
           rdf:resource="http://creativecommons.org/licenses/by-nc-sa/3.0/" />
      </cc:Work>
      <cc:License
         rdf:about="http://creativecommons.org/licenses/by-nc-sa/3.0/">
        <cc:permits
           rdf:resource="http://creativecommons.org/ns#Reproduction" />
        <cc:permits
           rdf:resource="http://creativecommons.org/ns#Distribution" />
        <cc:requires
           rdf:resource="http://creativecommons.org/ns#Notice" />
        <cc:requires
           rdf:resource="http://creativecommons.org/ns#Attribution" />
        <cc:prohibits
           rdf:resource="http://creativecommons.org/ns#CommercialUse" />
        <cc:permits
           rdf:resource="http://creativecommons.org/ns#DerivativeWorks" />
        <cc:requires
           rdf:resource="http://creativecommons.org/ns#ShareAlike" />
      </cc:License>
    </rdf:RDF>
  </metadata>
  <sodipodi:namedview
     inkscape:window-height="949"
     inkscape:window-width="1280"
     inkscape:pageshadow="2"
     inkscape:pageopacity="0.0"
     guidetolerance="10.0"
     gridtolerance="10.0"
     objecttolerance="10.0"
     borderopacity="1.0"
     bordercolor="#666666"
     pagecolor="#ffffff"
     id="base"
     inkscape:zoom="3.585"
     inkscape:cx="100"
     inkscape:cy="100"
     inkscape:window-x="0"
     inkscape:window-y="25"
     inkscape:current-layer="svg1936"
     showguides="true"
     inkscape:guide-bbox="true"
     showgrid="false" />
  <defs
     id="defs1938">
    <inkscape:perspective
       sodipodi:type="inkscape:persp3d"
       inkscape:vp_x="0 : 96.034462 : 1"
       inkscape:vp_y="0 : 1000 : 0"
       inkscape:vp_z="1166.3524 : 96.034462 : 1"
       inkscape:persp3d-origin="583.17621 : 64.022975 : 1"
       id="perspective19" />
    <inkscape:perspective
       id="perspective2396"
       inkscape:persp3d-origin="372.04724 : 350.78739 : 1"
       inkscape:vp_z="744.09448 : 526.18109 : 1"
       inkscape:vp_y="0 : 1000 : 0"
       inkscape:vp_x="0 : 526.18109 : 1"
       sodipodi:type="inkscape:persp3d" />
    <inkscape:perspective
       id="perspective2496"
       inkscape:persp3d-origin="583.17621 : 64.022975 : 1"
       inkscape:vp_z="1166.3524 : 96.034462 : 1"
       inkscape:vp_y="0 : 1000 : 0"
       inkscape:vp_x="0 : 96.034462 : 1"
       sodipodi:type="inkscape:persp3d" />
    <filter
       inkscape:collect="always"
       id="filter3494">
      <feGaussianBlur
         inkscape:collect="always"
         stdDeviation="2.9334375"
         id="feGaussianBlur3496" />
    </filter>
    <filter
       inkscape:collect="always"
       id="filter3170">
      <feGaussianBlur
         inkscape:collect="always"
         stdDeviation="0.91117641"
         id="feGaussianBlur3172" />
    </filter>
  </defs>
  <path
     sodipodi:type="inkscape:offset"
     inkscape:radius="5.6382279"
     inkscape:original="M 35.625 4 C 18.103615 4 4 18.103615 4 35.625 L 4 156.6875 C 4 174.20888 18.103615 188.3125 35.625 188.3125 L 156.6875 188.3125 C 174.20888 188.3125 188.3125 174.20888 188.3125 156.6875 L 188.3125 35.625 C 188.3125 18.103615 174.20888 4 156.6875 4 L 35.625 4 z "
     xlink:href="#rect2470"
     style="opacity:0.28387098;fill:#000000;fill-opacity:1;stroke:none;stroke-width:8;stroke-linecap:square;stroke-miterlimit:6;stroke-dasharray:none;filter:url(#filter3494)"
     id="path3324"
     inkscape:href="#rect2470"
     d="M 35.625,-1.625 C 15.078002,-1.625 -1.625,15.078002 -1.625,35.625 L -1.625,156.6875 C -1.625,177.23449 15.078001,193.9375 35.625,193.9375 L 156.6875,193.9375 C 177.23449,193.9375 193.9375,177.23449 193.9375,156.6875 L 193.9375,35.625 C 193.9375,15.078001 177.23449,-1.625 156.6875,-1.625 L 35.625,-1.625 z"
     transform="translate(4,4)" />
  <rect
     style="fill:#ffffff;fill-opacity:1;stroke:#000000;stroke-width:8;stroke-linecap:square;stroke-miterlimit:6;stroke-dasharray:none"
     id="rect2470"
     width="184.32436"
     height="184.32436"
     x="4"
     y="4"
     rx="31.627048"
     ry="31.627048" />
  <path
     sodipodi:nodetypes="cccccczzszsc"
     id="path2398"
     d="M 147.69081,137.85144 C 142.84257,142.44837 142.34307,147.46519 138.47121,152.0408 C 123.74181,155.86972 101.16594,155.24869 84.929063,155.70368 C 61.890671,155.70368 48.739549,151.71937 26.997844,133.88665 C 24.176241,132.23127 22.06238,135.12047 24.413703,137.24613 C 43.125536,156.16517 63.998009,166.51745 90.24422,168.72366 C 107.28004,168.72365 122.15166,168.10181 134.90668,162.41451 C 147.6617,156.7272 155.41255,158.95514 159.32938,156.5754 C 163.1617,154.24702 163.813,150.91325 165.50959,148.05861 C 168.1134,143.67749 171.58125,139.03131 169.83802,136.07705 C 168.09478,133.12278 162.22712,134.34023 156.52601,135.6298 C 153.03235,136.42004 149.14604,136.55601 147.69081,137.85144 z"
     style="opacity:0.6;fill:#808080;fill-opacity:1;fill-rule:evenodd;stroke:none;stroke-width:1;filter:url(#filter3170)" />
  <path
     id="path2403"
     style="fill:none;fill-rule:evenodd;stroke:#aa0000;stroke-width:1px;stroke-linecap:butt;stroke-linejoin:miter;stroke-opacity:1"
     d="M 168.22831,134.97847 C 174.67534,133.2384 175.96785,131.71899 175.96785,131.71899 L 176.44628,127.9718 M 175.90959,131.6017 L 178.77661,132.66353" />
  <path
     style="opacity:1;fill:#72ba45;fill-opacity:1;fill-rule:evenodd;stroke:#000000;stroke-width:1"
     d="M 147.69081,135.85144 C 142.84257,140.44837 142.34307,145.46519 138.47121,150.0408 C 123.74181,153.86972 101.16594,153.24869 84.929063,153.70368 C 61.890671,153.70368 48.739549,149.71937 26.997844,131.88665 C 24.176241,130.23127 22.06238,133.12047 24.413703,135.24613 C 43.125536,154.16517 63.998009,164.51745 90.24422,166.72366 C 107.28004,166.72365 122.15166,166.10181 134.90668,160.41451 C 147.6617,154.7272 155.41255,156.95514 159.32938,154.5754 C 163.1617,152.24702 163.813,148.91325 165.50959,146.05861 C 168.1134,141.67749 171.58125,137.03131 169.83802,134.07705 C 168.09478,131.12278 162.22712,132.34023 156.52601,133.6298 C 153.03235,134.42004 149.14604,134.55601 147.69081,135.85144 z"
     id="path8"
     sodipodi:nodetypes="cccccczzszsc" />
  <path
     sodipodi:type="arc"
     style="opacity:0.33999999;fill:#4d4d4d;fill-opacity:1;stroke:none;stroke-width:12.625;stroke-linecap:square;stroke-miterlimit:6;stroke-dasharray:none"
     id="path2412"
     sodipodi:cx="94.9636"
     sodipodi:cy="165.05592"
     sodipodi:rx="6.0920043"
     sodipodi:ry="6.0920043"
     d="M 101.0556,165.05592 A 6.0920043,6.0920043 0 1 1 88.871596,165.05592 A 6.0920043,6.0920043 0 1 1 101.0556,165.05592 z"
     transform="matrix(0.7111979,0,0,0.71122,20.834654,43.039881)" />
  <path
     d="M 105.2753,92.398097 C 105.2753,100.45167 105.4788,107.16783 101.40854,114.3201 C 98.123229,120.13497 92.919103,123.71111 87.104429,123.71111 C 79.167397,123.71111 74.54474,117.66364 74.54474,108.73784 C 74.54474,91.11883 90.331574,87.920664 105.2753,87.920664 L 105.2753,92.398097 M 126.1209,142.78381 C 124.75446,144.00493 122.77745,144.09215 121.23657,143.27809 C 114.37527,137.57952 113.15417,134.93377 109.37464,129.49688 C 98.036009,141.06844 90.011783,144.52827 75.30064,144.52827 C 57.914756,144.52827 44.366587,133.79986 44.366587,112.31399 C 44.366587,95.538122 53.46655,84.11193 66.404193,78.529675 C 77.626512,73.587031 93.297059,72.714819 105.2753,71.348331 L 105.2753,68.673497 C 105.2753,63.75993 105.65326,57.945074 102.77499,53.700252 C 100.24559,49.891508 95.419427,48.321497 91.174702,48.321497 C 83.295836,48.321497 76.260065,52.362819 74.54474,60.736208 C 74.195851,62.596974 72.829404,64.428652 70.968718,64.515875 L 50.908096,62.364363 C 49.221837,61.986419 47.361139,60.619908 47.826313,58.032319 C 52.448982,33.72623 74.399367,26.399497 94.05298,26.399497 C 104.11235,26.399497 117.25352,29.074331 125.19055,36.691786 C 135.24995,46.082774 134.29051,58.613786 134.29051,72.24963 L 134.29051,104.46393 C 134.29051,114.14567 138.30265,118.39049 142.08219,123.62389 C 143.41955,125.48462 143.7103,127.72334 142.02404,129.11891 C 137.80839,132.6369 130.30748,139.17862 126.17903,142.84197 L 126.1209,142.78381"
     style="fill:#000000;fill-rule:evenodd;stroke:none"
     id="path30" />
  <path
     sodipodi:nodetypes="ccccczccsc"
     id="path2408"
     d="M 147.6908,135.85144 C 142.84256,140.44837 142.34307,145.46519 138.4712,150.0408 C 123.74181,153.86973 101.16594,153.2487 84.92906,153.70368 C 61.890669,153.70368 48.739547,149.71938 26.997843,131.88665 C 50.500459,151.1487 47.426687,148.99601 72.83476,156.35175 C 96.716731,159.0721 117.70668,157.95245 133.42503,155.59898 C 149.20177,153.23677 147.26344,142.13812 151.18027,139.75838 C 158.52929,136.06582 162.04993,135.79794 169.83801,134.07706 C 170.21782,130.87447 162.22711,132.34023 156.526,133.6298 C 153.03235,134.42005 149.14604,134.55602 147.6908,135.85144 z"
     style="opacity:0.52999998;fill:#ffff00;fill-opacity:1;fill-rule:evenodd;stroke:none" />
  <path
     sodipodi:nodetypes="ccccczzscc"
     id="path2410"
     d="M 158.98843,151.59453 C 154.14019,156.19145 144.75077,151.57721 140.8789,156.15282 C 126.1495,159.98175 106.35173,163.43539 90.114856,163.89038 C 54.187298,160.02211 40.456223,146.45852 24.413702,135.24614 C 43.125534,154.16518 63.998006,164.51745 90.244217,166.72366 C 107.28004,166.72365 122.15165,166.10181 134.90668,160.41451 C 147.6617,154.7272 155.41255,156.95514 159.32938,154.5754 C 163.16169,152.24702 163.813,148.91325 165.50959,146.05861 C 168.11339,141.6775 171.58124,137.03132 169.83801,134.07706 C 164.10985,143.0484 163.59037,141.2803 158.98843,151.59453 z"
     style="opacity:0.31999996;fill:#333333;fill-opacity:1;fill-rule:evenodd;stroke:none" />
  <use
     x="0"
     y="0"
     xlink:href="#path2412"
     id="use2414"
     transform="translate(14.835638,-0.206057)"
     width="196.94936"
     height="196.94936" />
  <use
     height="196.94936"
     width="196.94936"
     transform="translate(31.937832,-1.5454268)"
     id="use2416"
     xlink:href="#path2412"
     y="0"
     x="0" />
  <use
     x="0"
     y="0"
     xlink:href="#path2412"
     id="use2418"
     transform="translate(45.743216,-4.3271957)"
     width="196.94936"
     height="196.94936" />
  <use
     height="196.94936"
     width="196.94936"
     transform="matrix(0.8654858,0,0,0.8654858,-2.8098966,19.778755)"
     id="use2420"
     xlink:href="#path2412"
     y="0"
     x="0" />
  <use
     x="0"
     y="0"
     xlink:href="#path2412"
     id="use2422"
     transform="matrix(0.7740998,0,0,0.7740998,-9.8624291,30.832393)"
     width="196.94936"
     height="196.94936" />
  <use
     height="196.94936"
     width="196.94936"
     transform="matrix(0.6908734,0,0,0.6908734,-17.6007,37.024005)"
     id="use2424"
     xlink:href="#path2412"
     y="0"
     x="0" />
  <path
     transform="matrix(0.2926583,0,0,0.2926674,125.63561,90.487386)"
     d="M 101.0556,165.05592 A 6.0920043,6.0920043 0 1 1 88.871596,165.05592 A 6.0920043,6.0920043 0 1 1 101.0556,165.05592 z"
     sodipodi:ry="6.0920043"
     sodipodi:rx="6.0920043"
     sodipodi:cy="165.05592"
     sodipodi:cx="94.9636"
     id="path2428"
     style="opacity:0.7;fill:#4d4d4d;fill-opacity:1;stroke:none;stroke-width:12.625;stroke-linecap:square;stroke-miterlimit:6;stroke-dasharray:none"
     sodipodi:type="arc" />
  <use
     x="0"
     y="0"
     xlink:href="#path2428"
     id="use2430"
     transform="translate(6.8552087,8.074086)"
     width="196.94936"
     height="196.94936" />
</svg>
